<?xml version="1.0" encoding="utf-8" standalone="no"?>
<!DOCTYPE svg PUBLIC "-//W3C//DTD SVG 1.1//EN"
  "http://www.w3.org/Graphics/SVG/1.1/DTD/svg11.dtd">
<svg xmlns:xlink="http://www.w3.org/1999/xlink" width="720pt" height="504pt" viewBox="0 0 720 504" xmlns="http://www.w3.org/2000/svg" version="1.1">
 <metadata>
  <rdf:RDF xmlns:dc="http://purl.org/dc/elements/1.1/" xmlns:cc="http://creativecommons.org/ns#" xmlns:rdf="http://www.w3.org/1999/02/22-rdf-syntax-ns#">
   <cc:Work>
    <dc:type rdf:resource="http://purl.org/dc/dcmitype/StillImage"/>
    <dc:date>2022-06-17T13:27:26.034616</dc:date>
    <dc:format>image/svg+xml</dc:format>
    <dc:creator>
     <cc:Agent>
      <dc:title>Matplotlib v3.5.2, https://matplotlib.org/</dc:title>
     </cc:Agent>
    </dc:creator>
   </cc:Work>
  </rdf:RDF>
 </metadata>
 <defs>
  <style type="text/css">*{stroke-linejoin: round; stroke-linecap: butt}</style>
 </defs>
 <g id="figure_1">
  <g id="patch_1">
   <path d="M 0 504 
L 720 504 
L 720 0 
L 0 0 
z
" style="fill: #ffffff"/>
  </g>
  <g id="axes_1">
   <g id="patch_2">
    <path d="M 90 448.56 
L 648 448.56 
L 648 60.48 
L 90 60.48 
z
" style="fill: #ffffff"/>
   </g>
   <g id="patch_3">
    <path d="M 248.856459 448.56 
L 252.963931 448.56 
L 252.963931 99.76 
L 248.856459 99.76 
z
" clip-path="url(#p56b3183aa3)" style="fill: #008000"/>
   </g>
   <g id="patch_4">
    <path d="M 520.976445 448.56 
L 525.083916 448.56 
L 525.083916 409.976393 
L 520.976445 409.976393 
z
" clip-path="url(#p56b3183aa3)" style="fill: #008000"/>
   </g>
   <g id="patch_5">
    <path d="M 289.931174 448.56 
L 294.038646 448.56 
L 294.038646 230.356721 
L 289.931174 230.356721 
z
" clip-path="url(#p56b3183aa3)" style="fill: #008000"/>
   </g>
   <g id="patch_6">
    <path d="M 274.528156 448.56 
L 278.635628 448.56 
L 278.635628 192.56 
L 274.528156 192.56 
z
" clip-path="url(#p56b3183aa3)" style="fill: #008000"/>
   </g>
   <g id="patch_7">
    <path d="M 161.57269 448.56 
L 165.680162 448.56 
L 165.680162 438.566557 
L 161.57269 438.566557 
z
" clip-path="url(#p56b3183aa3)" style="fill: #008000"/>
   </g>
   <g id="patch_8">
    <path d="M 392.617961 448.56 
L 396.725432 448.56 
L 396.725432 260.389508 
L 392.617961 260.389508 
z
" clip-path="url(#p56b3183aa3)" style="fill: #008000"/>
   </g>
   <g id="patch_9">
    <path d="M 259.125138 448.56 
L 263.232609 448.56 
L 263.232609 137.687869 
L 259.125138 137.687869 
z
" clip-path="url(#p56b3183aa3)" style="fill: #008000"/>
   </g>
   <g id="patch_10">
    <path d="M 418.289658 448.56 
L 422.397129 448.56 
L 422.397129 278.723934 
L 418.289658 278.723934 
z
" clip-path="url(#p56b3183aa3)" style="fill: #008000"/>
   </g>
   <g id="patch_11">
    <path d="M 187.244387 448.56 
L 191.351859 448.56 
L 191.351859 419.078033 
L 187.244387 419.078033 
z
" clip-path="url(#p56b3183aa3)" style="fill: #008000"/>
   </g>
   <g id="patch_12">
    <path d="M 449.095694 448.56 
L 453.203165 448.56 
L 453.203165 334.304262 
L 449.095694 334.304262 
z
" clip-path="url(#p56b3183aa3)" style="fill: #008000"/>
   </g>
   <g id="patch_13">
    <path d="M 459.364372 448.56 
L 463.471844 448.56 
L 463.471844 350.619016 
L 459.364372 350.619016 
z
" clip-path="url(#p56b3183aa3)" style="fill: #008000"/>
   </g>
   <g id="patch_14">
    <path d="M 387.483622 448.56 
L 391.591093 448.56 
L 391.591093 259.550164 
L 387.483622 259.550164 
z
" clip-path="url(#p56b3183aa3)" style="fill: #008000"/>
   </g>
   <g id="patch_15">
    <path d="M 264.259477 448.56 
L 268.366949 448.56 
L 268.366949 149.464918 
L 264.259477 149.464918 
z
" clip-path="url(#p56b3183aa3)" style="fill: #008000"/>
   </g>
   <g id="patch_16">
    <path d="M 485.036069 448.56 
L 489.143541 448.56 
L 489.143541 385.661639 
L 485.036069 385.661639 
z
" clip-path="url(#p56b3183aa3)" style="fill: #008000"/>
   </g>
   <g id="patch_17">
    <path d="M 315.602871 448.56 
L 319.710342 448.56 
L 319.710342 250.474754 
L 315.602871 250.474754 
z
" clip-path="url(#p56b3183aa3)" style="fill: #008000"/>
   </g>
   <g id="patch_18">
    <path d="M 469.633051 448.56 
L 473.740523 448.56 
L 473.740523 359.091148 
L 469.633051 359.091148 
z
" clip-path="url(#p56b3183aa3)" style="fill: #008000"/>
   </g>
   <g id="patch_19">
    <path d="M 366.946264 448.56 
L 371.053736 448.56 
L 371.053736 247.222295 
L 366.946264 247.222295 
z
" clip-path="url(#p56b3183aa3)" style="fill: #008000"/>
   </g>
   <g id="patch_20">
    <path d="M 336.140228 448.56 
L 340.2477 448.56 
L 340.2477 252.389508 
L 336.140228 252.389508 
z
" clip-path="url(#p56b3183aa3)" style="fill: #008000"/>
   </g>
   <g id="patch_21">
    <path d="M 341.274568 448.56 
L 345.382039 448.56 
L 345.382039 249.530492 
L 341.274568 249.530492 
z
" clip-path="url(#p56b3183aa3)" style="fill: #008000"/>
   </g>
   <g id="patch_22">
    <path d="M 408.020979 448.56 
L 412.12845 448.56 
L 412.12845 275.366557 
L 408.020979 275.366557 
z
" clip-path="url(#p56b3183aa3)" style="fill: #008000"/>
   </g>
   <g id="patch_23">
    <path d="M 351.543246 448.56 
L 355.650718 448.56 
L 355.650718 251.104262 
L 351.543246 251.104262 
z
" clip-path="url(#p56b3183aa3)" style="fill: #008000"/>
   </g>
   <g id="patch_24">
    <path d="M 269.393817 448.56 
L 273.501288 448.56 
L 273.501288 170.317377 
L 269.393817 170.317377 
z
" clip-path="url(#p56b3183aa3)" style="fill: #008000"/>
   </g>
   <g id="patch_25">
    <path d="M 346.408907 448.56 
L 350.516378 448.56 
L 350.516378 255.956721 
L 346.408907 255.956721 
z
" clip-path="url(#p56b3183aa3)" style="fill: #008000"/>
   </g>
   <g id="patch_26">
    <path d="M 325.87155 448.56 
L 329.979021 448.56 
L 329.979021 256.874754 
L 325.87155 256.874754 
z
" clip-path="url(#p56b3183aa3)" style="fill: #008000"/>
   </g>
   <g id="patch_27">
    <path d="M 238.587781 448.56 
L 242.695252 448.56 
L 242.695252 78.96 
L 238.587781 78.96 
z
" clip-path="url(#p56b3183aa3)" style="fill: #008000"/>
   </g>
   <g id="patch_28">
    <path d="M 443.961354 448.56 
L 448.068826 448.56 
L 448.068826 322.632131 
L 443.961354 322.632131 
z
" clip-path="url(#p56b3183aa3)" style="fill: #008000"/>
   </g>
   <g id="patch_29">
    <path d="M 115.363636 448.56 
L 119.471108 448.56 
L 119.471108 440.00918 
L 115.363636 440.00918 
z
" clip-path="url(#p56b3183aa3)" style="fill: #008000"/>
   </g>
   <g id="patch_30">
    <path d="M 413.155318 448.56 
L 417.26279 448.56 
L 417.26279 276.80918 
L 413.155318 276.80918 
z
" clip-path="url(#p56b3183aa3)" style="fill: #008000"/>
   </g>
   <g id="patch_31">
    <path d="M 490.170409 448.56 
L 494.27788 448.56 
L 494.27788 389.097705 
L 490.170409 389.097705 
z
" clip-path="url(#p56b3183aa3)" style="fill: #008000"/>
   </g>
   <g id="patch_32">
    <path d="M 464.498712 448.56 
L 468.606183 448.56 
L 468.606183 356.966557 
L 464.498712 356.966557 
z
" clip-path="url(#p56b3183aa3)" style="fill: #008000"/>
   </g>
   <g id="patch_33">
    <path d="M 218.050423 448.56 
L 222.157895 448.56 
L 222.157895 176.192787 
L 218.050423 176.192787 
z
" clip-path="url(#p56b3183aa3)" style="fill: #008000"/>
   </g>
   <g id="patch_34">
    <path d="M 433.692676 448.56 
L 437.800147 448.56 
L 437.800147 310.98623 
L 433.692676 310.98623 
z
" clip-path="url(#p56b3183aa3)" style="fill: #008000"/>
   </g>
   <g id="patch_35">
    <path d="M 305.334192 448.56 
L 309.441664 448.56 
L 309.441664 249.950164 
L 305.334192 249.950164 
z
" clip-path="url(#p56b3183aa3)" style="fill: #008000"/>
   </g>
   <g id="patch_36">
    <path d="M 356.677586 448.56 
L 360.785057 448.56 
L 360.785057 247.930492 
L 356.677586 247.930492 
z
" clip-path="url(#p56b3183aa3)" style="fill: #008000"/>
   </g>
   <g id="patch_37">
    <path d="M 295.065513 448.56 
L 299.172985 448.56 
L 299.172985 242.999344 
L 295.065513 242.999344 
z
" clip-path="url(#p56b3183aa3)" style="fill: #008000"/>
   </g>
   <g id="patch_38">
    <path d="M 382.349282 448.56 
L 386.456754 448.56 
L 386.456754 258.18623 
L 382.349282 258.18623 
z
" clip-path="url(#p56b3183aa3)" style="fill: #008000"/>
   </g>
   <g id="patch_39">
    <path d="M 233.453441 448.56 
L 237.560913 448.56 
L 237.560913 81.897705 
L 233.453441 81.897705 
z
" clip-path="url(#p56b3183aa3)" style="fill: #008000"/>
   </g>
   <g id="patch_40">
    <path d="M 223.184763 448.56 
L 227.292234 448.56 
L 227.292234 124.205902 
L 223.184763 124.205902 
z
" clip-path="url(#p56b3183aa3)" style="fill: #008000"/>
   </g>
   <g id="patch_41">
    <path d="M 212.916084 448.56 
L 217.023555 448.56 
L 217.023555 231.169836 
L 212.916084 231.169836 
z
" clip-path="url(#p56b3183aa3)" style="fill: #008000"/>
   </g>
   <g id="patch_42">
    <path d="M 428.558336 448.56 
L 432.665808 448.56 
L 432.665808 298.369836 
L 428.558336 298.369836 
z
" clip-path="url(#p56b3183aa3)" style="fill: #008000"/>
   </g>
   <g id="patch_43">
    <path d="M 479.90173 448.56 
L 484.009201 448.56 
L 484.009201 380.678033 
L 479.90173 380.678033 
z
" clip-path="url(#p56b3183aa3)" style="fill: #008000"/>
   </g>
   <g id="patch_44">
    <path d="M 474.767391 448.56 
L 478.874862 448.56 
L 478.874862 372.31082 
L 474.767391 372.31082 
z
" clip-path="url(#p56b3183aa3)" style="fill: #008000"/>
   </g>
   <g id="patch_45">
    <path d="M 120.497976 448.56 
L 124.605447 448.56 
L 124.605447 442.946885 
L 120.497976 442.946885 
z
" clip-path="url(#p56b3183aa3)" style="fill: #008000"/>
   </g>
   <g id="patch_46">
    <path d="M 243.72212 448.56 
L 247.829591 448.56 
L 247.829591 80.743607 
L 243.72212 80.743607 
z
" clip-path="url(#p56b3183aa3)" style="fill: #008000"/>
   </g>
   <g id="patch_47">
    <path d="M 361.811925 448.56 
L 365.919396 448.56 
L 365.919396 255.353443 
L 361.811925 255.353443 
z
" clip-path="url(#p56b3183aa3)" style="fill: #008000"/>
   </g>
   <g id="patch_48">
    <path d="M 284.796835 448.56 
L 288.904306 448.56 
L 288.904306 221.36 
L 284.796835 221.36 
z
" clip-path="url(#p56b3183aa3)" style="fill: #008000"/>
   </g>
   <g id="patch_49">
    <path d="M 572.319838 448.56 
L 576.42731 448.56 
L 576.42731 436.80918 
L 572.319838 436.80918 
z
" clip-path="url(#p56b3183aa3)" style="fill: #008000"/>
   </g>
   <g id="patch_50">
    <path d="M 125.632315 448.56 
L 129.739787 448.56 
L 129.739787 444.546885 
L 125.632315 444.546885 
z
" clip-path="url(#p56b3183aa3)" style="fill: #008000"/>
   </g>
   <g id="patch_51">
    <path d="M 454.230033 448.56 
L 458.337505 448.56 
L 458.337505 345.032131 
L 454.230033 345.032131 
z
" clip-path="url(#p56b3183aa3)" style="fill: #008000"/>
   </g>
   <g id="patch_52">
    <path d="M 377.214943 448.56 
L 381.322414 448.56 
L 381.322414 254.540328 
L 377.214943 254.540328 
z
" clip-path="url(#p56b3183aa3)" style="fill: #008000"/>
   </g>
   <g id="patch_53">
    <path d="M 228.319102 448.56 
L 232.426573 448.56 
L 232.426573 94.487869 
L 228.319102 94.487869 
z
" clip-path="url(#p56b3183aa3)" style="fill: #008000"/>
   </g>
   <g id="patch_54">
    <path d="M 495.304748 448.56 
L 499.412219 448.56 
L 499.412219 392.743607 
L 495.304748 392.743607 
z
" clip-path="url(#p56b3183aa3)" style="fill: #008000"/>
   </g>
   <g id="patch_55">
    <path d="M 423.423997 448.56 
L 427.531469 448.56 
L 427.531469 294.015738 
L 423.423997 294.015738 
z
" clip-path="url(#p56b3183aa3)" style="fill: #008000"/>
   </g>
   <g id="patch_56">
    <path d="M 397.7523 448.56 
L 401.859772 448.56 
L 401.859772 265.215738 
L 397.7523 265.215738 
z
" clip-path="url(#p56b3183aa3)" style="fill: #008000"/>
   </g>
   <g id="patch_57">
    <path d="M 320.73721 448.56 
L 324.844682 448.56 
L 324.844682 252.80918 
L 320.73721 252.80918 
z
" clip-path="url(#p56b3183aa3)" style="fill: #008000"/>
   </g>
   <g id="patch_58">
    <path d="M 279.662495 448.56 
L 283.769967 448.56 
L 283.769967 209.923934 
L 279.662495 209.923934 
z
" clip-path="url(#p56b3183aa3)" style="fill: #008000"/>
   </g>
   <g id="patch_59">
    <path d="M 253.990799 448.56 
L 258.09827 448.56 
L 258.09827 120.848525 
L 253.990799 120.848525 
z
" clip-path="url(#p56b3183aa3)" style="fill: #008000"/>
   </g>
   <g id="patch_60">
    <path d="M 372.080604 448.56 
L 376.188075 448.56 
L 376.188075 253.727213 
L 372.080604 253.727213 
z
" clip-path="url(#p56b3183aa3)" style="fill: #008000"/>
   </g>
   <g id="patch_61">
    <path d="M 202.647405 448.56 
L 206.754877 448.56 
L 206.754877 333.989508 
L 202.647405 333.989508 
z
" clip-path="url(#p56b3183aa3)" style="fill: #008000"/>
   </g>
   <g id="patch_62">
    <path d="M 438.827015 448.56 
L 442.934487 448.56 
L 442.934487 318.907541 
L 438.827015 318.907541 
z
" clip-path="url(#p56b3183aa3)" style="fill: #008000"/>
   </g>
   <g id="patch_63">
    <path d="M 402.88664 448.56 
L 406.994111 448.56 
L 406.994111 267.838689 
L 402.88664 267.838689 
z
" clip-path="url(#p56b3183aa3)" style="fill: #008000"/>
   </g>
   <g id="patch_64">
    <path d="M 515.842105 448.56 
L 519.949577 448.56 
L 519.949577 412.100984 
L 515.842105 412.100984 
z
" clip-path="url(#p56b3183aa3)" style="fill: #008000"/>
   </g>
   <g id="patch_65">
    <path d="M 331.005889 448.56 
L 335.11336 448.56 
L 335.11336 250.868197 
L 331.005889 250.868197 
z
" clip-path="url(#p56b3183aa3)" style="fill: #008000"/>
   </g>
   <g id="patch_66">
    <path d="M 166.70703 448.56 
L 170.814501 448.56 
L 170.814501 439.091148 
L 166.70703 439.091148 
z
" clip-path="url(#p56b3183aa3)" style="fill: #008000"/>
   </g>
   <g id="patch_67">
    <path d="M 197.513066 448.56 
L 201.620537 448.56 
L 201.620537 379.419016 
L 197.513066 379.419016 
z
" clip-path="url(#p56b3183aa3)" style="fill: #008000"/>
   </g>
   <g id="patch_68">
    <path d="M 300.199853 448.56 
L 304.307324 448.56 
L 304.307324 250.107541 
L 300.199853 250.107541 
z
" clip-path="url(#p56b3183aa3)" style="fill: #008000"/>
   </g>
   <g id="patch_69">
    <path d="M 500.439087 448.56 
L 504.546559 448.56 
L 504.546559 401.215738 
L 500.439087 401.215738 
z
" clip-path="url(#p56b3183aa3)" style="fill: #008000"/>
   </g>
   <g id="patch_70">
    <path d="M 176.975709 448.56 
L 181.08318 448.56 
L 181.08318 435.051803 
L 176.975709 435.051803 
z
" clip-path="url(#p56b3183aa3)" style="fill: #008000"/>
   </g>
   <g id="patch_71">
    <path d="M 182.110048 448.56 
L 186.217519 448.56 
L 186.217519 428.415738 
L 182.110048 428.415738 
z
" clip-path="url(#p56b3183aa3)" style="fill: #008000"/>
   </g>
   <g id="patch_72">
    <path d="M 207.781745 448.56 
L 211.889216 448.56 
L 211.889216 283.655082 
L 207.781745 283.655082 
z
" clip-path="url(#p56b3183aa3)" style="fill: #008000"/>
   </g>
   <g id="patch_73">
    <path d="M 310.468531 448.56 
L 314.576003 448.56 
L 314.576003 256.297705 
L 310.468531 256.297705 
z
" clip-path="url(#p56b3183aa3)" style="fill: #008000"/>
   </g>
   <g id="patch_74">
    <path d="M 192.378727 448.56 
L 196.486198 448.56 
L 196.486198 403.969836 
L 192.378727 403.969836 
z
" clip-path="url(#p56b3183aa3)" style="fill: #008000"/>
   </g>
   <g id="patch_75">
    <path d="M 130.766654 448.56 
L 134.874126 448.56 
L 134.874126 443.969836 
L 130.766654 443.969836 
z
" clip-path="url(#p56b3183aa3)" style="fill: #008000"/>
   </g>
   <g id="patch_76">
    <path d="M 505.573427 448.56 
L 509.680898 448.56 
L 509.680898 404.651803 
L 505.573427 404.651803 
z
" clip-path="url(#p56b3183aa3)" style="fill: #008000"/>
   </g>
   <g id="patch_77">
    <path d="M 562.051159 448.56 
L 566.158631 448.56 
L 566.158631 434.68459 
L 562.051159 434.68459 
z
" clip-path="url(#p56b3183aa3)" style="fill: #008000"/>
   </g>
   <g id="patch_78">
    <path d="M 151.304012 448.56 
L 155.411483 448.56 
L 155.411483 440.402623 
L 151.304012 440.402623 
z
" clip-path="url(#p56b3183aa3)" style="fill: #008000"/>
   </g>
   <g id="patch_79">
    <path d="M 546.648141 448.56 
L 550.755613 448.56 
L 550.755613 427.76 
L 546.648141 427.76 
z
" clip-path="url(#p56b3183aa3)" style="fill: #008000"/>
   </g>
   <g id="patch_80">
    <path d="M 603.125874 448.56 
L 607.233346 448.56 
L 607.233346 446.251803 
L 603.125874 446.251803 
z
" clip-path="url(#p56b3183aa3)" style="fill: #008000"/>
   </g>
   <g id="patch_81">
    <path d="M 510.707766 448.56 
L 514.815237 448.56 
L 514.815237 408.979672 
L 510.707766 408.979672 
z
" clip-path="url(#p56b3183aa3)" style="fill: #008000"/>
   </g>
   <g id="patch_82">
    <path d="M 531.245123 448.56 
L 535.352595 448.56 
L 535.352595 420.520656 
L 531.245123 420.520656 
z
" clip-path="url(#p56b3183aa3)" style="fill: #008000"/>
   </g>
   <g id="patch_83">
    <path d="M 536.379463 448.56 
L 540.486934 448.56 
L 540.486934 424.402623 
L 536.379463 424.402623 
z
" clip-path="url(#p56b3183aa3)" style="fill: #008000"/>
   </g>
   <g id="patch_84">
    <path d="M 141.035333 448.56 
L 145.142805 448.56 
L 145.142805 442.579672 
L 141.035333 442.579672 
z
" clip-path="url(#p56b3183aa3)" style="fill: #008000"/>
   </g>
   <g id="patch_85">
    <path d="M 156.438351 448.56 
L 160.545823 448.56 
L 160.545823 440.769836 
L 156.438351 440.769836 
z
" clip-path="url(#p56b3183aa3)" style="fill: #008000"/>
   </g>
   <g id="patch_86">
    <path d="M 146.169672 448.56 
L 150.277144 448.56 
L 150.277144 441.320656 
L 146.169672 441.320656 
z
" clip-path="url(#p56b3183aa3)" style="fill: #008000"/>
   </g>
   <g id="patch_87">
    <path d="M 577.454177 448.56 
L 581.561649 448.56 
L 581.561649 440.796066 
L 577.454177 440.796066 
z
" clip-path="url(#p56b3183aa3)" style="fill: #008000"/>
   </g>
   <g id="patch_88">
    <path d="M 135.900994 448.56 
L 140.008465 448.56 
L 140.008465 443.261639 
L 135.900994 443.261639 
z
" clip-path="url(#p56b3183aa3)" style="fill: #008000"/>
   </g>
   <g id="patch_89">
    <path d="M 567.185499 448.56 
L 571.29297 448.56 
L 571.29297 436.389508 
L 567.185499 436.389508 
z
" clip-path="url(#p56b3183aa3)" style="fill: #008000"/>
   </g>
   <g id="patch_90">
    <path d="M 556.91682 448.56 
L 561.024291 448.56 
L 561.024291 432.848525 
L 556.91682 432.848525 
z
" clip-path="url(#p56b3183aa3)" style="fill: #008000"/>
   </g>
   <g id="patch_91">
    <path d="M 541.513802 448.56 
L 545.621273 448.56 
L 545.621273 425.897705 
L 541.513802 425.897705 
z
" clip-path="url(#p56b3183aa3)" style="fill: #008000"/>
   </g>
   <g id="patch_92">
    <path d="M 551.782481 448.56 
L 555.889952 448.56 
L 555.889952 431.064918 
L 551.782481 431.064918 
z
" clip-path="url(#p56b3183aa3)" style="fill: #008000"/>
   </g>
   <g id="patch_93">
    <path d="M 526.110784 448.56 
L 530.218255 448.56 
L 530.218255 417.11082 
L 526.110784 417.11082 
z
" clip-path="url(#p56b3183aa3)" style="fill: #008000"/>
   </g>
   <g id="patch_94">
    <path d="M 171.841369 448.56 
L 175.948841 448.56 
L 175.948841 437.019016 
L 171.841369 437.019016 
z
" clip-path="url(#p56b3183aa3)" style="fill: #008000"/>
   </g>
   <g id="patch_95">
    <path d="M 613.394553 448.56 
L 617.502024 448.56 
L 617.502024 447.012459 
L 613.394553 447.012459 
z
" clip-path="url(#p56b3183aa3)" style="fill: #008000"/>
   </g>
   <g id="patch_96">
    <path d="M 582.588517 448.56 
L 586.695988 448.56 
L 586.695988 442.16 
L 582.588517 442.16 
z
" clip-path="url(#p56b3183aa3)" style="fill: #008000"/>
   </g>
   <g id="patch_97">
    <path d="M 597.991535 448.56 
L 602.099006 448.56 
L 602.099006 444.83541 
L 597.991535 444.83541 
z
" clip-path="url(#p56b3183aa3)" style="fill: #008000"/>
   </g>
   <g id="patch_98">
    <path d="M 587.722856 448.56 
L 591.830328 448.56 
L 591.830328 442.999344 
L 587.722856 442.999344 
z
" clip-path="url(#p56b3183aa3)" style="fill: #008000"/>
   </g>
   <g id="patch_99">
    <path d="M 592.857195 448.56 
L 596.964667 448.56 
L 596.964667 444.415738 
L 592.857195 444.415738 
z
" clip-path="url(#p56b3183aa3)" style="fill: #008000"/>
   </g>
   <g id="patch_100">
    <path d="M 618.528892 448.56 
L 622.636364 448.56 
L 622.636364 447.091148 
L 618.528892 447.091148 
z
" clip-path="url(#p56b3183aa3)" style="fill: #008000"/>
   </g>
   <g id="patch_101">
    <path d="M 608.260213 448.56 
L 612.367685 448.56 
L 612.367685 446.98623 
L 608.260213 446.98623 
z
" clip-path="url(#p56b3183aa3)" style="fill: #008000"/>
   </g>
   <g id="matplotlib.axis_1">
    <g id="xtick_1">
     <g id="line2d_1">
      <defs>
       <path id="mf763fc668e" d="M 0 0 
L 0 3.5 
" style="stroke: #000000; stroke-width: 0.8"/>
      </defs>
      <g>
       <use xlink:href="#mf763fc668e" x="112.283033" y="448.56" style="stroke: #000000; stroke-width: 0.8"/>
      </g>
     </g>
     <g id="text_1">
      <!-- 0 -->
      <g transform="translate(109.101783 463.158437)scale(0.1 -0.1)">
       <defs>
        <path id="DejaVuSans-30" d="M 2034 4250 
Q 1547 4250 1301 3770 
Q 1056 3291 1056 2328 
Q 1056 1369 1301 889 
Q 1547 409 2034 409 
Q 2525 409 2770 889 
Q 3016 1369 3016 2328 
Q 3016 3291 2770 3770 
Q 2525 4250 2034 4250 
z
M 2034 4750 
Q 2819 4750 3233 4129 
Q 3647 3509 3647 2328 
Q 3647 1150 3233 529 
Q 2819 -91 2034 -91 
Q 1250 -91 836 529 
Q 422 1150 422 2328 
Q 422 3509 836 4129 
Q 1250 4750 2034 4750 
z
" transform="scale(0.015625)"/>
       </defs>
       <use xlink:href="#DejaVuSans-30"/>
      </g>
     </g>
    </g>
    <g id="xtick_2">
     <g id="line2d_2">
      <g>
       <use xlink:href="#mf763fc668e" x="214.96982" y="448.56" style="stroke: #000000; stroke-width: 0.8"/>
      </g>
     </g>
     <g id="text_2">
      <!-- 20 -->
      <g transform="translate(208.60732 463.158437)scale(0.1 -0.1)">
       <defs>
        <path id="DejaVuSans-32" d="M 1228 531 
L 3431 531 
L 3431 0 
L 469 0 
L 469 531 
Q 828 903 1448 1529 
Q 2069 2156 2228 2338 
Q 2531 2678 2651 2914 
Q 2772 3150 2772 3378 
Q 2772 3750 2511 3984 
Q 2250 4219 1831 4219 
Q 1534 4219 1204 4116 
Q 875 4013 500 3803 
L 500 4441 
Q 881 4594 1212 4672 
Q 1544 4750 1819 4750 
Q 2544 4750 2975 4387 
Q 3406 4025 3406 3419 
Q 3406 3131 3298 2873 
Q 3191 2616 2906 2266 
Q 2828 2175 2409 1742 
Q 1991 1309 1228 531 
z
" transform="scale(0.015625)"/>
       </defs>
       <use xlink:href="#DejaVuSans-32"/>
       <use xlink:href="#DejaVuSans-30" x="63.623047"/>
      </g>
     </g>
    </g>
    <g id="xtick_3">
     <g id="line2d_3">
      <g>
       <use xlink:href="#mf763fc668e" x="317.656607" y="448.56" style="stroke: #000000; stroke-width: 0.8"/>
      </g>
     </g>
     <g id="text_3">
      <!-- 40 -->
      <g transform="translate(311.294107 463.158437)scale(0.1 -0.1)">
       <defs>
        <path id="DejaVuSans-34" d="M 2419 4116 
L 825 1625 
L 2419 1625 
L 2419 4116 
z
M 2253 4666 
L 3047 4666 
L 3047 1625 
L 3713 1625 
L 3713 1100 
L 3047 1100 
L 3047 0 
L 2419 0 
L 2419 1100 
L 313 1100 
L 313 1709 
L 2253 4666 
z
" transform="scale(0.015625)"/>
       </defs>
       <use xlink:href="#DejaVuSans-34"/>
       <use xlink:href="#DejaVuSans-30" x="63.623047"/>
      </g>
     </g>
    </g>
    <g id="xtick_4">
     <g id="line2d_4">
      <g>
       <use xlink:href="#mf763fc668e" x="420.343393" y="448.56" style="stroke: #000000; stroke-width: 0.8"/>
      </g>
     </g>
     <g id="text_4">
      <!-- 60 -->
      <g transform="translate(413.980893 463.158437)scale(0.1 -0.1)">
       <defs>
        <path id="DejaVuSans-36" d="M 2113 2584 
Q 1688 2584 1439 2293 
Q 1191 2003 1191 1497 
Q 1191 994 1439 701 
Q 1688 409 2113 409 
Q 2538 409 2786 701 
Q 3034 994 3034 1497 
Q 3034 2003 2786 2293 
Q 2538 2584 2113 2584 
z
M 3366 4563 
L 3366 3988 
Q 3128 4100 2886 4159 
Q 2644 4219 2406 4219 
Q 1781 4219 1451 3797 
Q 1122 3375 1075 2522 
Q 1259 2794 1537 2939 
Q 1816 3084 2150 3084 
Q 2853 3084 3261 2657 
Q 3669 2231 3669 1497 
Q 3669 778 3244 343 
Q 2819 -91 2113 -91 
Q 1303 -91 875 529 
Q 447 1150 447 2328 
Q 447 3434 972 4092 
Q 1497 4750 2381 4750 
Q 2619 4750 2861 4703 
Q 3103 4656 3366 4563 
z
" transform="scale(0.015625)"/>
       </defs>
       <use xlink:href="#DejaVuSans-36"/>
       <use xlink:href="#DejaVuSans-30" x="63.623047"/>
      </g>
     </g>
    </g>
    <g id="xtick_5">
     <g id="line2d_5">
      <g>
       <use xlink:href="#mf763fc668e" x="523.03018" y="448.56" style="stroke: #000000; stroke-width: 0.8"/>
      </g>
     </g>
     <g id="text_5">
      <!-- 80 -->
      <g transform="translate(516.66768 463.158437)scale(0.1 -0.1)">
       <defs>
        <path id="DejaVuSans-38" d="M 2034 2216 
Q 1584 2216 1326 1975 
Q 1069 1734 1069 1313 
Q 1069 891 1326 650 
Q 1584 409 2034 409 
Q 2484 409 2743 651 
Q 3003 894 3003 1313 
Q 3003 1734 2745 1975 
Q 2488 2216 2034 2216 
z
M 1403 2484 
Q 997 2584 770 2862 
Q 544 3141 544 3541 
Q 544 4100 942 4425 
Q 1341 4750 2034 4750 
Q 2731 4750 3128 4425 
Q 3525 4100 3525 3541 
Q 3525 3141 3298 2862 
Q 3072 2584 2669 2484 
Q 3125 2378 3379 2068 
Q 3634 1759 3634 1313 
Q 3634 634 3220 271 
Q 2806 -91 2034 -91 
Q 1263 -91 848 271 
Q 434 634 434 1313 
Q 434 1759 690 2068 
Q 947 2378 1403 2484 
z
M 1172 3481 
Q 1172 3119 1398 2916 
Q 1625 2713 2034 2713 
Q 2441 2713 2670 2916 
Q 2900 3119 2900 3481 
Q 2900 3844 2670 4047 
Q 2441 4250 2034 4250 
Q 1625 4250 1398 4047 
Q 1172 3844 1172 3481 
z
" transform="scale(0.015625)"/>
       </defs>
       <use xlink:href="#DejaVuSans-38"/>
       <use xlink:href="#DejaVuSans-30" x="63.623047"/>
      </g>
     </g>
    </g>
    <g id="xtick_6">
     <g id="line2d_6">
      <g>
       <use xlink:href="#mf763fc668e" x="625.716967" y="448.56" style="stroke: #000000; stroke-width: 0.8"/>
      </g>
     </g>
     <g id="text_6">
      <!-- 100 -->
      <g transform="translate(616.173217 463.158437)scale(0.1 -0.1)">
       <defs>
        <path id="DejaVuSans-31" d="M 794 531 
L 1825 531 
L 1825 4091 
L 703 3866 
L 703 4441 
L 1819 4666 
L 2450 4666 
L 2450 531 
L 3481 531 
L 3481 0 
L 794 0 
L 794 531 
z
" transform="scale(0.015625)"/>
       </defs>
       <use xlink:href="#DejaVuSans-31"/>
       <use xlink:href="#DejaVuSans-30" x="63.623047"/>
       <use xlink:href="#DejaVuSans-30" x="127.246094"/>
      </g>
     </g>
    </g>
    <g id="text_7">
     <!-- age -->
     <g transform="translate(359.685156 476.836563)scale(0.1 -0.1)">
      <defs>
       <path id="DejaVuSans-61" d="M 2194 1759 
Q 1497 1759 1228 1600 
Q 959 1441 959 1056 
Q 959 750 1161 570 
Q 1363 391 1709 391 
Q 2188 391 2477 730 
Q 2766 1069 2766 1631 
L 2766 1759 
L 2194 1759 
z
M 3341 1997 
L 3341 0 
L 2766 0 
L 2766 531 
Q 2569 213 2275 61 
Q 1981 -91 1556 -91 
Q 1019 -91 701 211 
Q 384 513 384 1019 
Q 384 1609 779 1909 
Q 1175 2209 1959 2209 
L 2766 2209 
L 2766 2266 
Q 2766 2663 2505 2880 
Q 2244 3097 1772 3097 
Q 1472 3097 1187 3025 
Q 903 2953 641 2809 
L 641 3341 
Q 956 3463 1253 3523 
Q 1550 3584 1831 3584 
Q 2591 3584 2966 3190 
Q 3341 2797 3341 1997 
z
" transform="scale(0.015625)"/>
       <path id="DejaVuSans-67" d="M 2906 1791 
Q 2906 2416 2648 2759 
Q 2391 3103 1925 3103 
Q 1463 3103 1205 2759 
Q 947 2416 947 1791 
Q 947 1169 1205 825 
Q 1463 481 1925 481 
Q 2391 481 2648 825 
Q 2906 1169 2906 1791 
z
M 3481 434 
Q 3481 -459 3084 -895 
Q 2688 -1331 1869 -1331 
Q 1566 -1331 1297 -1286 
Q 1028 -1241 775 -1147 
L 775 -588 
Q 1028 -725 1275 -790 
Q 1522 -856 1778 -856 
Q 2344 -856 2625 -561 
Q 2906 -266 2906 331 
L 2906 616 
Q 2728 306 2450 153 
Q 2172 0 1784 0 
Q 1141 0 747 490 
Q 353 981 353 1791 
Q 353 2603 747 3093 
Q 1141 3584 1784 3584 
Q 2172 3584 2450 3431 
Q 2728 3278 2906 2969 
L 2906 3500 
L 3481 3500 
L 3481 434 
z
" transform="scale(0.015625)"/>
       <path id="DejaVuSans-65" d="M 3597 1894 
L 3597 1613 
L 953 1613 
Q 991 1019 1311 708 
Q 1631 397 2203 397 
Q 2534 397 2845 478 
Q 3156 559 3463 722 
L 3463 178 
Q 3153 47 2828 -22 
Q 2503 -91 2169 -91 
Q 1331 -91 842 396 
Q 353 884 353 1716 
Q 353 2575 817 3079 
Q 1281 3584 2069 3584 
Q 2775 3584 3186 3129 
Q 3597 2675 3597 1894 
z
M 3022 2063 
Q 3016 2534 2758 2815 
Q 2500 3097 2075 3097 
Q 1594 3097 1305 2825 
Q 1016 2553 972 2059 
L 3022 2063 
z
" transform="scale(0.015625)"/>
      </defs>
      <use xlink:href="#DejaVuSans-61"/>
      <use xlink:href="#DejaVuSans-67" x="61.279297"/>
      <use xlink:href="#DejaVuSans-65" x="124.755859"/>
     </g>
    </g>
   </g>
   <g id="matplotlib.axis_2">
    <g id="ytick_1">
     <g id="line2d_7">
      <defs>
       <path id="m04521299a9" d="M 0 0 
L -3.5 0 
" style="stroke: #000000; stroke-width: 0.8"/>
      </defs>
      <g>
       <use xlink:href="#m04521299a9" x="90" y="448.56" style="stroke: #000000; stroke-width: 0.8"/>
      </g>
     </g>
     <g id="text_8">
      <!-- 0 -->
      <g transform="translate(76.6375 452.359219)scale(0.1 -0.1)">
       <use xlink:href="#DejaVuSans-30"/>
      </g>
     </g>
    </g>
    <g id="ytick_2">
     <g id="line2d_8">
      <g>
       <use xlink:href="#m04521299a9" x="90" y="396.100984" style="stroke: #000000; stroke-width: 0.8"/>
      </g>
     </g>
     <g id="text_9">
      <!-- 2000 -->
      <g transform="translate(57.55 399.900202)scale(0.1 -0.1)">
       <use xlink:href="#DejaVuSans-32"/>
       <use xlink:href="#DejaVuSans-30" x="63.623047"/>
       <use xlink:href="#DejaVuSans-30" x="127.246094"/>
       <use xlink:href="#DejaVuSans-30" x="190.869141"/>
      </g>
     </g>
    </g>
    <g id="ytick_3">
     <g id="line2d_9">
      <g>
       <use xlink:href="#m04521299a9" x="90" y="343.641967" style="stroke: #000000; stroke-width: 0.8"/>
      </g>
     </g>
     <g id="text_10">
      <!-- 4000 -->
      <g transform="translate(57.55 347.441186)scale(0.1 -0.1)">
       <use xlink:href="#DejaVuSans-34"/>
       <use xlink:href="#DejaVuSans-30" x="63.623047"/>
       <use xlink:href="#DejaVuSans-30" x="127.246094"/>
       <use xlink:href="#DejaVuSans-30" x="190.869141"/>
      </g>
     </g>
    </g>
    <g id="ytick_4">
     <g id="line2d_10">
      <g>
       <use xlink:href="#m04521299a9" x="90" y="291.182951" style="stroke: #000000; stroke-width: 0.8"/>
      </g>
     </g>
     <g id="text_11">
      <!-- 6000 -->
      <g transform="translate(57.55 294.98217)scale(0.1 -0.1)">
       <use xlink:href="#DejaVuSans-36"/>
       <use xlink:href="#DejaVuSans-30" x="63.623047"/>
       <use xlink:href="#DejaVuSans-30" x="127.246094"/>
       <use xlink:href="#DejaVuSans-30" x="190.869141"/>
      </g>
     </g>
    </g>
    <g id="ytick_5">
     <g id="line2d_11">
      <g>
       <use xlink:href="#m04521299a9" x="90" y="238.723934" style="stroke: #000000; stroke-width: 0.8"/>
      </g>
     </g>
     <g id="text_12">
      <!-- 8000 -->
      <g transform="translate(57.55 242.523153)scale(0.1 -0.1)">
       <use xlink:href="#DejaVuSans-38"/>
       <use xlink:href="#DejaVuSans-30" x="63.623047"/>
       <use xlink:href="#DejaVuSans-30" x="127.246094"/>
       <use xlink:href="#DejaVuSans-30" x="190.869141"/>
      </g>
     </g>
    </g>
    <g id="ytick_6">
     <g id="line2d_12">
      <g>
       <use xlink:href="#m04521299a9" x="90" y="186.264918" style="stroke: #000000; stroke-width: 0.8"/>
      </g>
     </g>
     <g id="text_13">
      <!-- 10000 -->
      <g transform="translate(51.1875 190.064137)scale(0.1 -0.1)">
       <use xlink:href="#DejaVuSans-31"/>
       <use xlink:href="#DejaVuSans-30" x="63.623047"/>
       <use xlink:href="#DejaVuSans-30" x="127.246094"/>
       <use xlink:href="#DejaVuSans-30" x="190.869141"/>
       <use xlink:href="#DejaVuSans-30" x="254.492188"/>
      </g>
     </g>
    </g>
    <g id="ytick_7">
     <g id="line2d_13">
      <g>
       <use xlink:href="#m04521299a9" x="90" y="133.805902" style="stroke: #000000; stroke-width: 0.8"/>
      </g>
     </g>
     <g id="text_14">
      <!-- 12000 -->
      <g transform="translate(51.1875 137.60512)scale(0.1 -0.1)">
       <use xlink:href="#DejaVuSans-31"/>
       <use xlink:href="#DejaVuSans-32" x="63.623047"/>
       <use xlink:href="#DejaVuSans-30" x="127.246094"/>
       <use xlink:href="#DejaVuSans-30" x="190.869141"/>
       <use xlink:href="#DejaVuSans-30" x="254.492188"/>
      </g>
     </g>
    </g>
    <g id="ytick_8">
     <g id="line2d_14">
      <g>
       <use xlink:href="#m04521299a9" x="90" y="81.346885" style="stroke: #000000; stroke-width: 0.8"/>
      </g>
     </g>
     <g id="text_15">
      <!-- 14000 -->
      <g transform="translate(51.1875 85.146104)scale(0.1 -0.1)">
       <use xlink:href="#DejaVuSans-31"/>
       <use xlink:href="#DejaVuSans-34" x="63.623047"/>
       <use xlink:href="#DejaVuSans-30" x="127.246094"/>
       <use xlink:href="#DejaVuSans-30" x="190.869141"/>
       <use xlink:href="#DejaVuSans-30" x="254.492188"/>
      </g>
     </g>
    </g>
    <g id="text_16">
     <!-- # of occurences in dataset -->
     <g transform="translate(45.107812 321.692656)rotate(-90)scale(0.1 -0.1)">
      <defs>
       <path id="DejaVuSans-23" d="M 3272 2816 
L 2363 2816 
L 2100 1772 
L 3016 1772 
L 3272 2816 
z
M 2803 4594 
L 2478 3297 
L 3391 3297 
L 3719 4594 
L 4219 4594 
L 3897 3297 
L 4872 3297 
L 4872 2816 
L 3775 2816 
L 3519 1772 
L 4513 1772 
L 4513 1294 
L 3397 1294 
L 3072 0 
L 2572 0 
L 2894 1294 
L 1978 1294 
L 1656 0 
L 1153 0 
L 1478 1294 
L 494 1294 
L 494 1772 
L 1594 1772 
L 1856 2816 
L 850 2816 
L 850 3297 
L 1978 3297 
L 2297 4594 
L 2803 4594 
z
" transform="scale(0.015625)"/>
       <path id="DejaVuSans-20" transform="scale(0.015625)"/>
       <path id="DejaVuSans-6f" d="M 1959 3097 
Q 1497 3097 1228 2736 
Q 959 2375 959 1747 
Q 959 1119 1226 758 
Q 1494 397 1959 397 
Q 2419 397 2687 759 
Q 2956 1122 2956 1747 
Q 2956 2369 2687 2733 
Q 2419 3097 1959 3097 
z
M 1959 3584 
Q 2709 3584 3137 3096 
Q 3566 2609 3566 1747 
Q 3566 888 3137 398 
Q 2709 -91 1959 -91 
Q 1206 -91 779 398 
Q 353 888 353 1747 
Q 353 2609 779 3096 
Q 1206 3584 1959 3584 
z
" transform="scale(0.015625)"/>
       <path id="DejaVuSans-66" d="M 2375 4863 
L 2375 4384 
L 1825 4384 
Q 1516 4384 1395 4259 
Q 1275 4134 1275 3809 
L 1275 3500 
L 2222 3500 
L 2222 3053 
L 1275 3053 
L 1275 0 
L 697 0 
L 697 3053 
L 147 3053 
L 147 3500 
L 697 3500 
L 697 3744 
Q 697 4328 969 4595 
Q 1241 4863 1831 4863 
L 2375 4863 
z
" transform="scale(0.015625)"/>
       <path id="DejaVuSans-63" d="M 3122 3366 
L 3122 2828 
Q 2878 2963 2633 3030 
Q 2388 3097 2138 3097 
Q 1578 3097 1268 2742 
Q 959 2388 959 1747 
Q 959 1106 1268 751 
Q 1578 397 2138 397 
Q 2388 397 2633 464 
Q 2878 531 3122 666 
L 3122 134 
Q 2881 22 2623 -34 
Q 2366 -91 2075 -91 
Q 1284 -91 818 406 
Q 353 903 353 1747 
Q 353 2603 823 3093 
Q 1294 3584 2113 3584 
Q 2378 3584 2631 3529 
Q 2884 3475 3122 3366 
z
" transform="scale(0.015625)"/>
       <path id="DejaVuSans-75" d="M 544 1381 
L 544 3500 
L 1119 3500 
L 1119 1403 
Q 1119 906 1312 657 
Q 1506 409 1894 409 
Q 2359 409 2629 706 
Q 2900 1003 2900 1516 
L 2900 3500 
L 3475 3500 
L 3475 0 
L 2900 0 
L 2900 538 
Q 2691 219 2414 64 
Q 2138 -91 1772 -91 
Q 1169 -91 856 284 
Q 544 659 544 1381 
z
M 1991 3584 
L 1991 3584 
z
" transform="scale(0.015625)"/>
       <path id="DejaVuSans-72" d="M 2631 2963 
Q 2534 3019 2420 3045 
Q 2306 3072 2169 3072 
Q 1681 3072 1420 2755 
Q 1159 2438 1159 1844 
L 1159 0 
L 581 0 
L 581 3500 
L 1159 3500 
L 1159 2956 
Q 1341 3275 1631 3429 
Q 1922 3584 2338 3584 
Q 2397 3584 2469 3576 
Q 2541 3569 2628 3553 
L 2631 2963 
z
" transform="scale(0.015625)"/>
       <path id="DejaVuSans-6e" d="M 3513 2113 
L 3513 0 
L 2938 0 
L 2938 2094 
Q 2938 2591 2744 2837 
Q 2550 3084 2163 3084 
Q 1697 3084 1428 2787 
Q 1159 2491 1159 1978 
L 1159 0 
L 581 0 
L 581 3500 
L 1159 3500 
L 1159 2956 
Q 1366 3272 1645 3428 
Q 1925 3584 2291 3584 
Q 2894 3584 3203 3211 
Q 3513 2838 3513 2113 
z
" transform="scale(0.015625)"/>
       <path id="DejaVuSans-73" d="M 2834 3397 
L 2834 2853 
Q 2591 2978 2328 3040 
Q 2066 3103 1784 3103 
Q 1356 3103 1142 2972 
Q 928 2841 928 2578 
Q 928 2378 1081 2264 
Q 1234 2150 1697 2047 
L 1894 2003 
Q 2506 1872 2764 1633 
Q 3022 1394 3022 966 
Q 3022 478 2636 193 
Q 2250 -91 1575 -91 
Q 1294 -91 989 -36 
Q 684 19 347 128 
L 347 722 
Q 666 556 975 473 
Q 1284 391 1588 391 
Q 1994 391 2212 530 
Q 2431 669 2431 922 
Q 2431 1156 2273 1281 
Q 2116 1406 1581 1522 
L 1381 1569 
Q 847 1681 609 1914 
Q 372 2147 372 2553 
Q 372 3047 722 3315 
Q 1072 3584 1716 3584 
Q 2034 3584 2315 3537 
Q 2597 3491 2834 3397 
z
" transform="scale(0.015625)"/>
       <path id="DejaVuSans-69" d="M 603 3500 
L 1178 3500 
L 1178 0 
L 603 0 
L 603 3500 
z
M 603 4863 
L 1178 4863 
L 1178 4134 
L 603 4134 
L 603 4863 
z
" transform="scale(0.015625)"/>
       <path id="DejaVuSans-64" d="M 2906 2969 
L 2906 4863 
L 3481 4863 
L 3481 0 
L 2906 0 
L 2906 525 
Q 2725 213 2448 61 
Q 2172 -91 1784 -91 
Q 1150 -91 751 415 
Q 353 922 353 1747 
Q 353 2572 751 3078 
Q 1150 3584 1784 3584 
Q 2172 3584 2448 3432 
Q 2725 3281 2906 2969 
z
M 947 1747 
Q 947 1113 1208 752 
Q 1469 391 1925 391 
Q 2381 391 2643 752 
Q 2906 1113 2906 1747 
Q 2906 2381 2643 2742 
Q 2381 3103 1925 3103 
Q 1469 3103 1208 2742 
Q 947 2381 947 1747 
z
" transform="scale(0.015625)"/>
       <path id="DejaVuSans-74" d="M 1172 4494 
L 1172 3500 
L 2356 3500 
L 2356 3053 
L 1172 3053 
L 1172 1153 
Q 1172 725 1289 603 
Q 1406 481 1766 481 
L 2356 481 
L 2356 0 
L 1766 0 
Q 1100 0 847 248 
Q 594 497 594 1153 
L 594 3053 
L 172 3053 
L 172 3500 
L 594 3500 
L 594 4494 
L 1172 4494 
z
" transform="scale(0.015625)"/>
      </defs>
      <use xlink:href="#DejaVuSans-23"/>
      <use xlink:href="#DejaVuSans-20" x="83.789062"/>
      <use xlink:href="#DejaVuSans-6f" x="115.576172"/>
      <use xlink:href="#DejaVuSans-66" x="176.757812"/>
      <use xlink:href="#DejaVuSans-20" x="211.962891"/>
      <use xlink:href="#DejaVuSans-6f" x="243.75"/>
      <use xlink:href="#DejaVuSans-63" x="304.931641"/>
      <use xlink:href="#DejaVuSans-63" x="359.912109"/>
      <use xlink:href="#DejaVuSans-75" x="414.892578"/>
      <use xlink:href="#DejaVuSans-72" x="478.271484"/>
      <use xlink:href="#DejaVuSans-65" x="517.134766"/>
      <use xlink:href="#DejaVuSans-6e" x="578.658203"/>
      <use xlink:href="#DejaVuSans-63" x="642.037109"/>
      <use xlink:href="#DejaVuSans-65" x="697.017578"/>
      <use xlink:href="#DejaVuSans-73" x="758.541016"/>
      <use xlink:href="#DejaVuSans-20" x="810.640625"/>
      <use xlink:href="#DejaVuSans-69" x="842.427734"/>
      <use xlink:href="#DejaVuSans-6e" x="870.210938"/>
      <use xlink:href="#DejaVuSans-20" x="933.589844"/>
      <use xlink:href="#DejaVuSans-64" x="965.376953"/>
      <use xlink:href="#DejaVuSans-61" x="1028.853516"/>
      <use xlink:href="#DejaVuSans-74" x="1090.132812"/>
      <use xlink:href="#DejaVuSans-61" x="1129.341797"/>
      <use xlink:href="#DejaVuSans-73" x="1190.621094"/>
      <use xlink:href="#DejaVuSans-65" x="1242.720703"/>
      <use xlink:href="#DejaVuSans-74" x="1304.244141"/>
     </g>
    </g>
   </g>
   <g id="patch_102">
    <path d="M 90 448.56 
L 90 60.48 
" style="fill: none; stroke: #000000; stroke-width: 0.8; stroke-linejoin: miter; stroke-linecap: square"/>
   </g>
   <g id="patch_103">
    <path d="M 648 448.56 
L 648 60.48 
" style="fill: none; stroke: #000000; stroke-width: 0.8; stroke-linejoin: miter; stroke-linecap: square"/>
   </g>
   <g id="patch_104">
    <path d="M 90 448.56 
L 648 448.56 
" style="fill: none; stroke: #000000; stroke-width: 0.8; stroke-linejoin: miter; stroke-linecap: square"/>
   </g>
   <g id="patch_105">
    <path d="M 90 60.48 
L 648 60.48 
" style="fill: none; stroke: #000000; stroke-width: 0.8; stroke-linejoin: miter; stroke-linecap: square"/>
   </g>
   <g id="text_17">
    <!-- Distribution of age in dataset -->
    <g transform="translate(281.254687 54.48)scale(0.12 -0.12)">
     <defs>
      <path id="DejaVuSans-44" d="M 1259 4147 
L 1259 519 
L 2022 519 
Q 2988 519 3436 956 
Q 3884 1394 3884 2338 
Q 3884 3275 3436 3711 
Q 2988 4147 2022 4147 
L 1259 4147 
z
M 628 4666 
L 1925 4666 
Q 3281 4666 3915 4102 
Q 4550 3538 4550 2338 
Q 4550 1131 3912 565 
Q 3275 0 1925 0 
L 628 0 
L 628 4666 
z
" transform="scale(0.015625)"/>
      <path id="DejaVuSans-62" d="M 3116 1747 
Q 3116 2381 2855 2742 
Q 2594 3103 2138 3103 
Q 1681 3103 1420 2742 
Q 1159 2381 1159 1747 
Q 1159 1113 1420 752 
Q 1681 391 2138 391 
Q 2594 391 2855 752 
Q 3116 1113 3116 1747 
z
M 1159 2969 
Q 1341 3281 1617 3432 
Q 1894 3584 2278 3584 
Q 2916 3584 3314 3078 
Q 3713 2572 3713 1747 
Q 3713 922 3314 415 
Q 2916 -91 2278 -91 
Q 1894 -91 1617 61 
Q 1341 213 1159 525 
L 1159 0 
L 581 0 
L 581 4863 
L 1159 4863 
L 1159 2969 
z
" transform="scale(0.015625)"/>
     </defs>
     <use xlink:href="#DejaVuSans-44"/>
     <use xlink:href="#DejaVuSans-69" x="77.001953"/>
     <use xlink:href="#DejaVuSans-73" x="104.785156"/>
     <use xlink:href="#DejaVuSans-74" x="156.884766"/>
     <use xlink:href="#DejaVuSans-72" x="196.09375"/>
     <use xlink:href="#DejaVuSans-69" x="237.207031"/>
     <use xlink:href="#DejaVuSans-62" x="264.990234"/>
     <use xlink:href="#DejaVuSans-75" x="328.466797"/>
     <use xlink:href="#DejaVuSans-74" x="391.845703"/>
     <use xlink:href="#DejaVuSans-69" x="431.054688"/>
     <use xlink:href="#DejaVuSans-6f" x="458.837891"/>
     <use xlink:href="#DejaVuSans-6e" x="520.019531"/>
     <use xlink:href="#DejaVuSans-20" x="583.398438"/>
     <use xlink:href="#DejaVuSans-6f" x="615.185547"/>
     <use xlink:href="#DejaVuSans-66" x="676.367188"/>
     <use xlink:href="#DejaVuSans-20" x="711.572266"/>
     <use xlink:href="#DejaVuSans-61" x="743.359375"/>
     <use xlink:href="#DejaVuSans-67" x="804.638672"/>
     <use xlink:href="#DejaVuSans-65" x="868.115234"/>
     <use xlink:href="#DejaVuSans-20" x="929.638672"/>
     <use xlink:href="#DejaVuSans-69" x="961.425781"/>
     <use xlink:href="#DejaVuSans-6e" x="989.208984"/>
     <use xlink:href="#DejaVuSans-20" x="1052.587891"/>
     <use xlink:href="#DejaVuSans-64" x="1084.375"/>
     <use xlink:href="#DejaVuSans-61" x="1147.851562"/>
     <use xlink:href="#DejaVuSans-74" x="1209.130859"/>
     <use xlink:href="#DejaVuSans-61" x="1248.339844"/>
     <use xlink:href="#DejaVuSans-73" x="1309.619141"/>
     <use xlink:href="#DejaVuSans-65" x="1361.71875"/>
     <use xlink:href="#DejaVuSans-74" x="1423.242188"/>
    </g>
   </g>
  </g>
 </g>
 <defs>
  <clipPath id="p56b3183aa3">
   <rect x="90" y="60.48" width="558" height="388.08"/>
  </clipPath>
 </defs>
</svg>
