<?xml version="1.0" encoding="utf-8" standalone="no"?>
<!DOCTYPE svg PUBLIC "-//W3C//DTD SVG 1.1//EN"
  "http://www.w3.org/Graphics/SVG/1.1/DTD/svg11.dtd">
<svg xmlns:xlink="http://www.w3.org/1999/xlink" width="720pt" height="504pt" viewBox="0 0 720 504" xmlns="http://www.w3.org/2000/svg" version="1.1">
 <metadata>
  <rdf:RDF xmlns:dc="http://purl.org/dc/elements/1.1/" xmlns:cc="http://creativecommons.org/ns#" xmlns:rdf="http://www.w3.org/1999/02/22-rdf-syntax-ns#">
   <cc:Work>
    <dc:type rdf:resource="http://purl.org/dc/dcmitype/StillImage"/>
    <dc:date>2022-06-17T13:27:26.636481</dc:date>
    <dc:format>image/svg+xml</dc:format>
    <dc:creator>
     <cc:Agent>
      <dc:title>Matplotlib v3.5.2, https://matplotlib.org/</dc:title>
     </cc:Agent>
    </dc:creator>
   </cc:Work>
  </rdf:RDF>
 </metadata>
 <defs>
  <style type="text/css">*{stroke-linejoin: round; stroke-linecap: butt}</style>
 </defs>
 <g id="figure_1">
  <g id="patch_1">
   <path d="M 0 504 
L 720 504 
L 720 0 
L 0 0 
z
" style="fill: #ffffff"/>
  </g>
  <g id="axes_1">
   <g id="patch_2">
    <path d="M 90 448.56 
L 648 448.56 
L 648 60.48 
L 90 60.48 
z
" style="fill: #ffffff"/>
   </g>
   <g id="patch_3">
    <path d="M 115.363636 448.56 
L 117.685251 448.56 
L 117.685251 401.651326 
L 115.363636 401.651326 
z
" clip-path="url(#p986f3b5d26)" style="fill: #008000"/>
   </g>
   <g id="patch_4">
    <path d="M 118.265654 448.56 
L 120.587269 448.56 
L 120.587269 406.150524 
L 118.265654 406.150524 
z
" clip-path="url(#p986f3b5d26)" style="fill: #008000"/>
   </g>
   <g id="patch_5">
    <path d="M 121.167672 448.56 
L 123.489286 448.56 
L 123.489286 402.962751 
L 121.167672 402.962751 
z
" clip-path="url(#p986f3b5d26)" style="fill: #008000"/>
   </g>
   <g id="patch_6">
    <path d="M 124.06969 448.56 
L 126.391304 448.56 
L 126.391304 404.49611 
L 124.06969 404.49611 
z
" clip-path="url(#p986f3b5d26)" style="fill: #008000"/>
   </g>
   <g id="patch_7">
    <path d="M 126.971708 448.56 
L 129.293322 448.56 
L 129.293322 400.884647 
L 126.971708 400.884647 
z
" clip-path="url(#p986f3b5d26)" style="fill: #008000"/>
   </g>
   <g id="patch_8">
    <path d="M 129.873726 448.56 
L 132.19534 448.56 
L 132.19534 403.991716 
L 129.873726 403.991716 
z
" clip-path="url(#p986f3b5d26)" style="fill: #008000"/>
   </g>
   <g id="patch_9">
    <path d="M 132.775744 448.56 
L 135.097358 448.56 
L 135.097358 404.334704 
L 132.775744 404.334704 
z
" clip-path="url(#p986f3b5d26)" style="fill: #008000"/>
   </g>
   <g id="patch_10">
    <path d="M 135.677762 448.56 
L 137.999376 448.56 
L 137.999376 404.677692 
L 135.677762 404.677692 
z
" clip-path="url(#p986f3b5d26)" style="fill: #008000"/>
   </g>
   <g id="patch_11">
    <path d="M 138.579779 448.56 
L 140.901394 448.56 
L 140.901394 402.660115 
L 138.579779 402.660115 
z
" clip-path="url(#p986f3b5d26)" style="fill: #008000"/>
   </g>
   <g id="patch_12">
    <path d="M 141.481797 448.56 
L 143.803412 448.56 
L 143.803412 402.861872 
L 141.481797 402.861872 
z
" clip-path="url(#p986f3b5d26)" style="fill: #008000"/>
   </g>
   <g id="patch_13">
    <path d="M 144.383815 448.56 
L 146.70543 448.56 
L 146.70543 391.866076 
L 144.383815 391.866076 
z
" clip-path="url(#p986f3b5d26)" style="fill: #008000"/>
   </g>
   <g id="patch_14">
    <path d="M 147.285833 448.56 
L 149.607447 448.56 
L 149.607447 403.5882 
L 147.285833 403.5882 
z
" clip-path="url(#p986f3b5d26)" style="fill: #008000"/>
   </g>
   <g id="patch_15">
    <path d="M 150.187851 448.56 
L 152.509465 448.56 
L 152.509465 400.037264 
L 150.187851 400.037264 
z
" clip-path="url(#p986f3b5d26)" style="fill: #008000"/>
   </g>
   <g id="patch_16">
    <path d="M 153.089869 448.56 
L 155.411483 448.56 
L 155.411483 403.527673 
L 153.089869 403.527673 
z
" clip-path="url(#p986f3b5d26)" style="fill: #008000"/>
   </g>
   <g id="patch_17">
    <path d="M 155.991887 448.56 
L 158.313501 448.56 
L 158.313501 397.212656 
L 155.991887 397.212656 
z
" clip-path="url(#p986f3b5d26)" style="fill: #008000"/>
   </g>
   <g id="patch_18">
    <path d="M 158.893905 448.56 
L 161.215519 448.56 
L 161.215519 397.777577 
L 158.893905 397.777577 
z
" clip-path="url(#p986f3b5d26)" style="fill: #008000"/>
   </g>
   <g id="patch_19">
    <path d="M 161.795923 448.56 
L 164.117537 448.56 
L 164.117537 394.388047 
L 161.795923 394.388047 
z
" clip-path="url(#p986f3b5d26)" style="fill: #008000"/>
   </g>
   <g id="patch_20">
    <path d="M 164.697941 448.56 
L 167.019555 448.56 
L 167.019555 393.137149 
L 164.697941 393.137149 
z
" clip-path="url(#p986f3b5d26)" style="fill: #008000"/>
   </g>
   <g id="patch_21">
    <path d="M 167.599958 448.56 
L 169.921573 448.56 
L 169.921573 389.687092 
L 167.599958 389.687092 
z
" clip-path="url(#p986f3b5d26)" style="fill: #008000"/>
   </g>
   <g id="patch_22">
    <path d="M 170.501976 448.56 
L 172.823591 448.56 
L 172.823591 388.416018 
L 170.501976 388.416018 
z
" clip-path="url(#p986f3b5d26)" style="fill: #008000"/>
   </g>
   <g id="patch_23">
    <path d="M 173.403994 448.56 
L 175.725608 448.56 
L 175.725608 385.692289 
L 173.403994 385.692289 
z
" clip-path="url(#p986f3b5d26)" style="fill: #008000"/>
   </g>
   <g id="patch_24">
    <path d="M 176.306012 448.56 
L 178.627626 448.56 
L 178.627626 388.960764 
L 176.306012 388.960764 
z
" clip-path="url(#p986f3b5d26)" style="fill: #008000"/>
   </g>
   <g id="patch_25">
    <path d="M 179.20803 448.56 
L 181.529644 448.56 
L 181.529644 385.994925 
L 179.20803 385.994925 
z
" clip-path="url(#p986f3b5d26)" style="fill: #008000"/>
   </g>
   <g id="patch_26">
    <path d="M 182.110048 448.56 
L 184.431662 448.56 
L 184.431662 384.965961 
L 182.110048 384.965961 
z
" clip-path="url(#p986f3b5d26)" style="fill: #008000"/>
   </g>
   <g id="patch_27">
    <path d="M 185.012066 448.56 
L 187.33368 448.56 
L 187.33368 383.735239 
L 185.012066 383.735239 
z
" clip-path="url(#p986f3b5d26)" style="fill: #008000"/>
   </g>
   <g id="patch_28">
    <path d="M 187.914084 448.56 
L 190.235698 448.56 
L 190.235698 381.495728 
L 187.914084 381.495728 
z
" clip-path="url(#p986f3b5d26)" style="fill: #008000"/>
   </g>
   <g id="patch_29">
    <path d="M 190.816102 448.56 
L 193.137716 448.56 
L 193.137716 381.899243 
L 190.816102 381.899243 
z
" clip-path="url(#p986f3b5d26)" style="fill: #008000"/>
   </g>
   <g id="patch_30">
    <path d="M 193.718119 448.56 
L 196.039734 448.56 
L 196.039734 379.33692 
L 193.718119 379.33692 
z
" clip-path="url(#p986f3b5d26)" style="fill: #008000"/>
   </g>
   <g id="patch_31">
    <path d="M 196.620137 448.56 
L 198.941752 448.56 
L 198.941752 379.579029 
L 196.620137 379.579029 
z
" clip-path="url(#p986f3b5d26)" style="fill: #008000"/>
   </g>
   <g id="patch_32">
    <path d="M 199.522155 448.56 
L 201.84377 448.56 
L 201.84377 376.936003 
L 199.522155 376.936003 
z
" clip-path="url(#p986f3b5d26)" style="fill: #008000"/>
   </g>
   <g id="patch_33">
    <path d="M 202.424173 448.56 
L 204.745787 448.56 
L 204.745787 373.122782 
L 202.424173 373.122782 
z
" clip-path="url(#p986f3b5d26)" style="fill: #008000"/>
   </g>
   <g id="patch_34">
    <path d="M 205.326191 448.56 
L 207.647805 448.56 
L 207.647805 378.751823 
L 205.326191 378.751823 
z
" clip-path="url(#p986f3b5d26)" style="fill: #008000"/>
   </g>
   <g id="patch_35">
    <path d="M 208.228209 448.56 
L 210.549823 448.56 
L 210.549823 371.145556 
L 208.228209 371.145556 
z
" clip-path="url(#p986f3b5d26)" style="fill: #008000"/>
   </g>
   <g id="patch_36">
    <path d="M 211.130227 448.56 
L 213.451841 448.56 
L 213.451841 371.912235 
L 211.130227 371.912235 
z
" clip-path="url(#p986f3b5d26)" style="fill: #008000"/>
   </g>
   <g id="patch_37">
    <path d="M 214.032245 448.56 
L 216.353859 448.56 
L 216.353859 369.127979 
L 214.032245 369.127979 
z
" clip-path="url(#p986f3b5d26)" style="fill: #008000"/>
   </g>
   <g id="patch_38">
    <path d="M 216.934263 448.56 
L 219.255877 448.56 
L 219.255877 369.632373 
L 216.934263 369.632373 
z
" clip-path="url(#p986f3b5d26)" style="fill: #008000"/>
   </g>
   <g id="patch_39">
    <path d="M 219.83628 448.56 
L 222.157895 448.56 
L 222.157895 364.305969 
L 219.83628 364.305969 
z
" clip-path="url(#p986f3b5d26)" style="fill: #008000"/>
   </g>
   <g id="patch_40">
    <path d="M 222.738298 448.56 
L 225.059913 448.56 
L 225.059913 369.067451 
L 222.738298 369.067451 
z
" clip-path="url(#p986f3b5d26)" style="fill: #008000"/>
   </g>
   <g id="patch_41">
    <path d="M 225.640316 448.56 
L 227.961931 448.56 
L 227.961931 362.288391 
L 225.640316 362.288391 
z
" clip-path="url(#p986f3b5d26)" style="fill: #008000"/>
   </g>
   <g id="patch_42">
    <path d="M 228.542334 448.56 
L 230.863948 448.56 
L 230.863948 359.948002 
L 228.542334 359.948002 
z
" clip-path="url(#p986f3b5d26)" style="fill: #008000"/>
   </g>
   <g id="patch_43">
    <path d="M 231.444352 448.56 
L 233.765966 448.56 
L 233.765966 358.777807 
L 231.444352 358.777807 
z
" clip-path="url(#p986f3b5d26)" style="fill: #008000"/>
   </g>
   <g id="patch_44">
    <path d="M 234.34637 448.56 
L 236.667984 448.56 
L 236.667984 359.847123 
L 234.34637 359.847123 
z
" clip-path="url(#p986f3b5d26)" style="fill: #008000"/>
   </g>
   <g id="patch_45">
    <path d="M 237.248388 448.56 
L 239.570002 448.56 
L 239.570002 355.569859 
L 237.248388 355.569859 
z
" clip-path="url(#p986f3b5d26)" style="fill: #008000"/>
   </g>
   <g id="patch_46">
    <path d="M 240.150406 448.56 
L 242.47202 448.56 
L 242.47202 353.572457 
L 240.150406 353.572457 
z
" clip-path="url(#p986f3b5d26)" style="fill: #008000"/>
   </g>
   <g id="patch_47">
    <path d="M 243.052424 448.56 
L 245.374038 448.56 
L 245.374038 350.061872 
L 243.052424 350.061872 
z
" clip-path="url(#p986f3b5d26)" style="fill: #008000"/>
   </g>
   <g id="patch_48">
    <path d="M 245.954441 448.56 
L 248.276056 448.56 
L 248.276056 347.761834 
L 245.954441 347.761834 
z
" clip-path="url(#p986f3b5d26)" style="fill: #008000"/>
   </g>
   <g id="patch_49">
    <path d="M 248.856459 448.56 
L 251.178074 448.56 
L 251.178074 347.317967 
L 248.856459 347.317967 
z
" clip-path="url(#p986f3b5d26)" style="fill: #008000"/>
   </g>
   <g id="patch_50">
    <path d="M 251.758477 448.56 
L 254.080092 448.56 
L 254.080092 348.003943 
L 251.758477 348.003943 
z
" clip-path="url(#p986f3b5d26)" style="fill: #008000"/>
   </g>
   <g id="patch_51">
    <path d="M 254.660495 448.56 
L 256.982109 448.56 
L 256.982109 340.316974 
L 254.660495 340.316974 
z
" clip-path="url(#p986f3b5d26)" style="fill: #008000"/>
   </g>
   <g id="patch_52">
    <path d="M 257.562513 448.56 
L 259.884127 448.56 
L 259.884127 341.103829 
L 257.562513 341.103829 
z
" clip-path="url(#p986f3b5d26)" style="fill: #008000"/>
   </g>
   <g id="patch_53">
    <path d="M 260.464531 448.56 
L 262.786145 448.56 
L 262.786145 340.155567 
L 260.464531 340.155567 
z
" clip-path="url(#p986f3b5d26)" style="fill: #008000"/>
   </g>
   <g id="patch_54">
    <path d="M 263.366549 448.56 
L 265.688163 448.56 
L 265.688163 340.821368 
L 263.366549 340.821368 
z
" clip-path="url(#p986f3b5d26)" style="fill: #008000"/>
   </g>
   <g id="patch_55">
    <path d="M 266.268567 448.56 
L 268.590181 448.56 
L 268.590181 334.60723 
L 266.268567 334.60723 
z
" clip-path="url(#p986f3b5d26)" style="fill: #008000"/>
   </g>
   <g id="patch_56">
    <path d="M 269.170585 448.56 
L 271.492199 448.56 
L 271.492199 339.146779 
L 269.170585 339.146779 
z
" clip-path="url(#p986f3b5d26)" style="fill: #008000"/>
   </g>
   <g id="patch_57">
    <path d="M 272.072602 448.56 
L 274.394217 448.56 
L 274.394217 336.402874 
L 272.072602 336.402874 
z
" clip-path="url(#p986f3b5d26)" style="fill: #008000"/>
   </g>
   <g id="patch_58">
    <path d="M 274.97462 448.56 
L 277.296235 448.56 
L 277.296235 336.423049 
L 274.97462 336.423049 
z
" clip-path="url(#p986f3b5d26)" style="fill: #008000"/>
   </g>
   <g id="patch_59">
    <path d="M 277.876638 448.56 
L 280.198253 448.56 
L 280.198253 336.100237 
L 277.876638 336.100237 
z
" clip-path="url(#p986f3b5d26)" style="fill: #008000"/>
   </g>
   <g id="patch_60">
    <path d="M 280.778656 448.56 
L 283.10027 448.56 
L 283.10027 337.593244 
L 280.778656 337.593244 
z
" clip-path="url(#p986f3b5d26)" style="fill: #008000"/>
   </g>
   <g id="patch_61">
    <path d="M 283.680674 448.56 
L 286.002288 448.56 
L 286.002288 328.937837 
L 283.680674 328.937837 
z
" clip-path="url(#p986f3b5d26)" style="fill: #008000"/>
   </g>
   <g id="patch_62">
    <path d="M 286.582692 448.56 
L 288.904306 448.56 
L 288.904306 332.347543 
L 286.582692 332.347543 
z
" clip-path="url(#p986f3b5d26)" style="fill: #008000"/>
   </g>
   <g id="patch_63">
    <path d="M 289.48471 448.56 
L 291.806324 448.56 
L 291.806324 309.165579 
L 289.48471 309.165579 
z
" clip-path="url(#p986f3b5d26)" style="fill: #008000"/>
   </g>
   <g id="patch_64">
    <path d="M 292.386728 448.56 
L 294.708342 448.56 
L 294.708342 206.067375 
L 292.386728 206.067375 
z
" clip-path="url(#p986f3b5d26)" style="fill: #008000"/>
   </g>
   <g id="patch_65">
    <path d="M 295.288746 448.56 
L 297.61036 448.56 
L 297.61036 323.248269 
L 295.288746 323.248269 
z
" clip-path="url(#p986f3b5d26)" style="fill: #008000"/>
   </g>
   <g id="patch_66">
    <path d="M 298.190763 448.56 
L 300.512378 448.56 
L 300.512378 319.959618 
L 298.190763 319.959618 
z
" clip-path="url(#p986f3b5d26)" style="fill: #008000"/>
   </g>
   <g id="patch_67">
    <path d="M 301.092781 448.56 
L 303.414396 448.56 
L 303.414396 320.887703 
L 301.092781 320.887703 
z
" clip-path="url(#p986f3b5d26)" style="fill: #008000"/>
   </g>
   <g id="patch_68">
    <path d="M 303.994799 448.56 
L 306.316414 448.56 
L 306.316414 316.590264 
L 303.994799 316.590264 
z
" clip-path="url(#p986f3b5d26)" style="fill: #008000"/>
   </g>
   <g id="patch_69">
    <path d="M 306.896817 448.56 
L 309.218431 448.56 
L 309.218431 315.339366 
L 306.896817 315.339366 
z
" clip-path="url(#p986f3b5d26)" style="fill: #008000"/>
   </g>
   <g id="patch_70">
    <path d="M 309.798835 448.56 
L 312.120449 448.56 
L 312.120449 312.736691 
L 309.798835 312.736691 
z
" clip-path="url(#p986f3b5d26)" style="fill: #008000"/>
   </g>
   <g id="patch_71">
    <path d="M 312.700853 448.56 
L 315.022467 448.56 
L 315.022467 307.955032 
L 312.700853 307.955032 
z
" clip-path="url(#p986f3b5d26)" style="fill: #008000"/>
   </g>
   <g id="patch_72">
    <path d="M 315.602871 448.56 
L 317.924485 448.56 
L 317.924485 308.903294 
L 315.602871 308.903294 
z
" clip-path="url(#p986f3b5d26)" style="fill: #008000"/>
   </g>
   <g id="patch_73">
    <path d="M 318.504889 448.56 
L 320.826503 448.56 
L 320.826503 304.000581 
L 318.504889 304.000581 
z
" clip-path="url(#p986f3b5d26)" style="fill: #008000"/>
   </g>
   <g id="patch_74">
    <path d="M 321.406907 448.56 
L 323.728521 448.56 
L 323.728521 308.479603 
L 321.406907 308.479603 
z
" clip-path="url(#p986f3b5d26)" style="fill: #008000"/>
   </g>
   <g id="patch_75">
    <path d="M 324.308924 448.56 
L 326.630539 448.56 
L 326.630539 299.319801 
L 324.308924 299.319801 
z
" clip-path="url(#p986f3b5d26)" style="fill: #008000"/>
   </g>
   <g id="patch_76">
    <path d="M 327.210942 448.56 
L 329.532557 448.56 
L 329.532557 300.348766 
L 327.210942 300.348766 
z
" clip-path="url(#p986f3b5d26)" style="fill: #008000"/>
   </g>
   <g id="patch_77">
    <path d="M 330.11296 448.56 
L 332.434575 448.56 
L 332.434575 292.25828 
L 330.11296 292.25828 
z
" clip-path="url(#p986f3b5d26)" style="fill: #008000"/>
   </g>
   <g id="patch_78">
    <path d="M 333.014978 448.56 
L 335.336592 448.56 
L 335.336592 302.648804 
L 333.014978 302.648804 
z
" clip-path="url(#p986f3b5d26)" style="fill: #008000"/>
   </g>
   <g id="patch_79">
    <path d="M 335.916996 448.56 
L 338.23861 448.56 
L 338.23861 304.565502 
L 335.916996 304.565502 
z
" clip-path="url(#p986f3b5d26)" style="fill: #008000"/>
   </g>
   <g id="patch_80">
    <path d="M 338.819014 448.56 
L 341.140628 448.56 
L 341.140628 307.672572 
L 338.819014 307.672572 
z
" clip-path="url(#p986f3b5d26)" style="fill: #008000"/>
   </g>
   <g id="patch_81">
    <path d="M 341.721032 448.56 
L 344.042646 448.56 
L 344.042646 301.61984 
L 341.721032 301.61984 
z
" clip-path="url(#p986f3b5d26)" style="fill: #008000"/>
   </g>
   <g id="patch_82">
    <path d="M 344.62305 448.56 
L 346.944664 448.56 
L 346.944664 298.694352 
L 344.62305 298.694352 
z
" clip-path="url(#p986f3b5d26)" style="fill: #008000"/>
   </g>
   <g id="patch_83">
    <path d="M 347.525068 448.56 
L 349.846682 448.56 
L 349.846682 270.327214 
L 347.525068 270.327214 
z
" clip-path="url(#p986f3b5d26)" style="fill: #008000"/>
   </g>
   <g id="patch_84">
    <path d="M 350.427086 448.56 
L 352.7487 448.56 
L 352.7487 271.39653 
L 350.427086 271.39653 
z
" clip-path="url(#p986f3b5d26)" style="fill: #008000"/>
   </g>
   <g id="patch_85">
    <path d="M 353.329103 448.56 
L 355.650718 448.56 
L 355.650718 278.599282 
L 353.329103 278.599282 
z
" clip-path="url(#p986f3b5d26)" style="fill: #008000"/>
   </g>
   <g id="patch_86">
    <path d="M 356.231121 448.56 
L 358.552736 448.56 
L 358.552736 274.180787 
L 356.231121 274.180787 
z
" clip-path="url(#p986f3b5d26)" style="fill: #008000"/>
   </g>
   <g id="patch_87">
    <path d="M 359.133139 448.56 
L 361.454753 448.56 
L 361.454753 268.370164 
L 359.133139 268.370164 
z
" clip-path="url(#p986f3b5d26)" style="fill: #008000"/>
   </g>
   <g id="patch_88">
    <path d="M 362.035157 448.56 
L 364.356771 448.56 
L 364.356771 266.29206 
L 362.035157 266.29206 
z
" clip-path="url(#p986f3b5d26)" style="fill: #008000"/>
   </g>
   <g id="patch_89">
    <path d="M 364.937175 448.56 
L 367.258789 448.56 
L 367.258789 263.810439 
L 364.937175 263.810439 
z
" clip-path="url(#p986f3b5d26)" style="fill: #008000"/>
   </g>
   <g id="patch_90">
    <path d="M 367.839193 448.56 
L 370.160807 448.56 
L 370.160807 259.492824 
L 367.839193 259.492824 
z
" clip-path="url(#p986f3b5d26)" style="fill: #008000"/>
   </g>
   <g id="patch_91">
    <path d="M 370.741211 448.56 
L 373.062825 448.56 
L 373.062825 254.872572 
L 370.741211 254.872572 
z
" clip-path="url(#p986f3b5d26)" style="fill: #008000"/>
   </g>
   <g id="patch_92">
    <path d="M 373.643229 448.56 
L 375.964843 448.56 
L 375.964843 255.195384 
L 373.643229 255.195384 
z
" clip-path="url(#p986f3b5d26)" style="fill: #008000"/>
   </g>
   <g id="patch_93">
    <path d="M 376.545247 448.56 
L 378.866861 448.56 
L 378.866861 240.446893 
L 376.545247 240.446893 
z
" clip-path="url(#p986f3b5d26)" style="fill: #008000"/>
   </g>
   <g id="patch_94">
    <path d="M 379.447264 448.56 
L 381.768879 448.56 
L 381.768879 256.083118 
L 379.447264 256.083118 
z
" clip-path="url(#p986f3b5d26)" style="fill: #008000"/>
   </g>
   <g id="patch_95">
    <path d="M 382.349282 448.56 
L 384.670897 448.56 
L 384.670897 259.835812 
L 382.349282 259.835812 
z
" clip-path="url(#p986f3b5d26)" style="fill: #008000"/>
   </g>
   <g id="patch_96">
    <path d="M 385.2513 448.56 
L 387.572914 448.56 
L 387.572914 262.862178 
L 385.2513 262.862178 
z
" clip-path="url(#p986f3b5d26)" style="fill: #008000"/>
   </g>
   <g id="patch_97">
    <path d="M 388.153318 448.56 
L 390.474932 448.56 
L 390.474932 253.92431 
L 388.153318 253.92431 
z
" clip-path="url(#p986f3b5d26)" style="fill: #008000"/>
   </g>
   <g id="patch_98">
    <path d="M 391.055336 448.56 
L 393.37695 448.56 
L 393.37695 249.525992 
L 391.055336 249.525992 
z
" clip-path="url(#p986f3b5d26)" style="fill: #008000"/>
   </g>
   <g id="patch_99">
    <path d="M 393.957354 448.56 
L 396.278968 448.56 
L 396.278968 244.058357 
L 393.957354 244.058357 
z
" clip-path="url(#p986f3b5d26)" style="fill: #008000"/>
   </g>
   <g id="patch_100">
    <path d="M 396.859372 448.56 
L 399.180986 448.56 
L 399.180986 242.827635 
L 396.859372 242.827635 
z
" clip-path="url(#p986f3b5d26)" style="fill: #008000"/>
   </g>
   <g id="patch_101">
    <path d="M 399.76139 448.56 
L 402.083004 448.56 
L 402.083004 230.802874 
L 399.76139 230.802874 
z
" clip-path="url(#p986f3b5d26)" style="fill: #008000"/>
   </g>
   <g id="patch_102">
    <path d="M 402.663408 448.56 
L 404.985022 448.56 
L 404.985022 228.845823 
L 402.663408 228.845823 
z
" clip-path="url(#p986f3b5d26)" style="fill: #008000"/>
   </g>
   <g id="patch_103">
    <path d="M 405.565425 448.56 
L 407.88704 448.56 
L 407.88704 210.485869 
L 405.565425 210.485869 
z
" clip-path="url(#p986f3b5d26)" style="fill: #008000"/>
   </g>
   <g id="patch_104">
    <path d="M 408.467443 448.56 
L 410.789058 448.56 
L 410.789058 217.184226 
L 408.467443 217.184226 
z
" clip-path="url(#p986f3b5d26)" style="fill: #008000"/>
   </g>
   <g id="patch_105">
    <path d="M 411.369461 448.56 
L 413.691076 448.56 
L 413.691076 197.250562 
L 411.369461 197.250562 
z
" clip-path="url(#p986f3b5d26)" style="fill: #008000"/>
   </g>
   <g id="patch_106">
    <path d="M 414.271479 448.56 
L 416.593093 448.56 
L 416.593093 187.203026 
L 414.271479 187.203026 
z
" clip-path="url(#p986f3b5d26)" style="fill: #008000"/>
   </g>
   <g id="patch_107">
    <path d="M 417.173497 448.56 
L 419.495111 448.56 
L 419.495111 188.837264 
L 417.173497 188.837264 
z
" clip-path="url(#p986f3b5d26)" style="fill: #008000"/>
   </g>
   <g id="patch_108">
    <path d="M 420.075515 448.56 
L 422.397129 448.56 
L 422.397129 187.626718 
L 420.075515 187.626718 
z
" clip-path="url(#p986f3b5d26)" style="fill: #008000"/>
   </g>
   <g id="patch_109">
    <path d="M 422.977533 448.56 
L 425.299147 448.56 
L 425.299147 156.374444 
L 422.977533 156.374444 
z
" clip-path="url(#p986f3b5d26)" style="fill: #008000"/>
   </g>
   <g id="patch_110">
    <path d="M 425.879551 448.56 
L 428.201165 448.56 
L 428.201165 137.832908 
L 425.879551 137.832908 
z
" clip-path="url(#p986f3b5d26)" style="fill: #008000"/>
   </g>
   <g id="patch_111">
    <path d="M 428.781569 448.56 
L 431.103183 448.56 
L 431.103183 151.976125 
L 428.781569 151.976125 
z
" clip-path="url(#p986f3b5d26)" style="fill: #008000"/>
   </g>
   <g id="patch_112">
    <path d="M 431.683586 448.56 
L 434.005201 448.56 
L 434.005201 157.948154 
L 431.683586 157.948154 
z
" clip-path="url(#p986f3b5d26)" style="fill: #008000"/>
   </g>
   <g id="patch_113">
    <path d="M 434.585604 448.56 
L 436.907219 448.56 
L 436.907219 78.96 
L 434.585604 78.96 
z
" clip-path="url(#p986f3b5d26)" style="fill: #008000"/>
   </g>
   <g id="patch_114">
    <path d="M 437.487622 448.56 
L 439.809237 448.56 
L 439.809237 161.317509 
L 437.487622 161.317509 
z
" clip-path="url(#p986f3b5d26)" style="fill: #008000"/>
   </g>
   <g id="patch_115">
    <path d="M 440.38964 448.56 
L 442.711254 448.56 
L 442.711254 149.09099 
L 440.38964 149.09099 
z
" clip-path="url(#p986f3b5d26)" style="fill: #008000"/>
   </g>
   <g id="patch_116">
    <path d="M 443.291658 448.56 
L 445.613272 448.56 
L 445.613272 119.210669 
L 443.291658 119.210669 
z
" clip-path="url(#p986f3b5d26)" style="fill: #008000"/>
   </g>
   <g id="patch_117">
    <path d="M 446.193676 448.56 
L 448.51529 448.56 
L 448.51529 150.079603 
L 446.193676 150.079603 
z
" clip-path="url(#p986f3b5d26)" style="fill: #008000"/>
   </g>
   <g id="patch_118">
    <path d="M 449.095694 448.56 
L 451.417308 448.56 
L 451.417308 145.963745 
L 449.095694 145.963745 
z
" clip-path="url(#p986f3b5d26)" style="fill: #008000"/>
   </g>
   <g id="patch_119">
    <path d="M 451.997712 448.56 
L 454.319326 448.56 
L 454.319326 149.030462 
L 451.997712 149.030462 
z
" clip-path="url(#p986f3b5d26)" style="fill: #008000"/>
   </g>
   <g id="patch_120">
    <path d="M 454.89973 448.56 
L 457.221344 448.56 
L 457.221344 150.119954 
L 454.89973 150.119954 
z
" clip-path="url(#p986f3b5d26)" style="fill: #008000"/>
   </g>
   <g id="patch_121">
    <path d="M 457.801747 448.56 
L 460.123362 448.56 
L 460.123362 150.059427 
L 457.801747 150.059427 
z
" clip-path="url(#p986f3b5d26)" style="fill: #008000"/>
   </g>
   <g id="patch_122">
    <path d="M 460.703765 448.56 
L 463.02538 448.56 
L 463.02538 144.813726 
L 460.703765 144.813726 
z
" clip-path="url(#p986f3b5d26)" style="fill: #008000"/>
   </g>
   <g id="patch_123">
    <path d="M 463.605783 448.56 
L 465.927398 448.56 
L 465.927398 128.491525 
L 463.605783 128.491525 
z
" clip-path="url(#p986f3b5d26)" style="fill: #008000"/>
   </g>
   <g id="patch_124">
    <path d="M 466.507801 448.56 
L 468.829415 448.56 
L 468.829415 145.116362 
L 466.507801 145.116362 
z
" clip-path="url(#p986f3b5d26)" style="fill: #008000"/>
   </g>
   <g id="patch_125">
    <path d="M 469.409819 448.56 
L 471.731433 448.56 
L 471.731433 133.434589 
L 469.409819 133.434589 
z
" clip-path="url(#p986f3b5d26)" style="fill: #008000"/>
   </g>
   <g id="patch_126">
    <path d="M 472.311837 448.56 
L 474.633451 448.56 
L 474.633451 135.351288 
L 472.311837 135.351288 
z
" clip-path="url(#p986f3b5d26)" style="fill: #008000"/>
   </g>
   <g id="patch_127">
    <path d="M 475.213855 448.56 
L 477.535469 448.56 
L 477.535469 127.724845 
L 475.213855 127.724845 
z
" clip-path="url(#p986f3b5d26)" style="fill: #008000"/>
   </g>
   <g id="patch_128">
    <path d="M 478.115873 448.56 
L 480.437487 448.56 
L 480.437487 131.719648 
L 478.115873 131.719648 
z
" clip-path="url(#p986f3b5d26)" style="fill: #008000"/>
   </g>
   <g id="patch_129">
    <path d="M 481.017891 448.56 
L 483.339505 448.56 
L 483.339505 150.059427 
L 481.017891 150.059427 
z
" clip-path="url(#p986f3b5d26)" style="fill: #008000"/>
   </g>
   <g id="patch_130">
    <path d="M 483.919908 448.56 
L 486.241523 448.56 
L 486.241523 145.741811 
L 483.919908 145.741811 
z
" clip-path="url(#p986f3b5d26)" style="fill: #008000"/>
   </g>
   <g id="patch_131">
    <path d="M 486.821926 448.56 
L 489.143541 448.56 
L 489.143541 139.850485 
L 486.821926 139.850485 
z
" clip-path="url(#p986f3b5d26)" style="fill: #008000"/>
   </g>
   <g id="patch_132">
    <path d="M 489.723944 448.56 
L 492.045559 448.56 
L 492.045559 129.560841 
L 489.723944 129.560841 
z
" clip-path="url(#p986f3b5d26)" style="fill: #008000"/>
   </g>
   <g id="patch_133">
    <path d="M 492.625962 448.56 
L 494.947576 448.56 
L 494.947576 119.795766 
L 492.625962 119.795766 
z
" clip-path="url(#p986f3b5d26)" style="fill: #008000"/>
   </g>
   <g id="patch_134">
    <path d="M 495.52798 448.56 
L 497.849594 448.56 
L 497.849594 129.500313 
L 495.52798 129.500313 
z
" clip-path="url(#p986f3b5d26)" style="fill: #008000"/>
   </g>
   <g id="patch_135">
    <path d="M 498.429998 448.56 
L 500.751612 448.56 
L 500.751612 133.676699 
L 498.429998 133.676699 
z
" clip-path="url(#p986f3b5d26)" style="fill: #008000"/>
   </g>
   <g id="patch_136">
    <path d="M 501.332016 448.56 
L 503.65363 448.56 
L 503.65363 141.666305 
L 501.332016 141.666305 
z
" clip-path="url(#p986f3b5d26)" style="fill: #008000"/>
   </g>
   <g id="patch_137">
    <path d="M 504.234034 448.56 
L 506.555648 448.56 
L 506.555648 144.511089 
L 504.234034 144.511089 
z
" clip-path="url(#p986f3b5d26)" style="fill: #008000"/>
   </g>
   <g id="patch_138">
    <path d="M 507.136052 448.56 
L 509.457666 448.56 
L 509.457666 136.19867 
L 507.136052 136.19867 
z
" clip-path="url(#p986f3b5d26)" style="fill: #008000"/>
   </g>
   <g id="patch_139">
    <path d="M 510.038069 448.56 
L 512.359684 448.56 
L 512.359684 141.282965 
L 510.038069 141.282965 
z
" clip-path="url(#p986f3b5d26)" style="fill: #008000"/>
   </g>
   <g id="patch_140">
    <path d="M 512.940087 448.56 
L 515.261702 448.56 
L 515.261702 140.87945 
L 512.940087 140.87945 
z
" clip-path="url(#p986f3b5d26)" style="fill: #008000"/>
   </g>
   <g id="patch_141">
    <path d="M 515.842105 448.56 
L 518.16372 448.56 
L 518.16372 138.216248 
L 515.842105 138.216248 
z
" clip-path="url(#p986f3b5d26)" style="fill: #008000"/>
   </g>
   <g id="patch_142">
    <path d="M 518.744123 448.56 
L 521.065737 448.56 
L 521.065737 129.016095 
L 518.744123 129.016095 
z
" clip-path="url(#p986f3b5d26)" style="fill: #008000"/>
   </g>
   <g id="patch_143">
    <path d="M 521.646141 448.56 
L 523.967755 448.56 
L 523.967755 109.728055 
L 521.646141 109.728055 
z
" clip-path="url(#p986f3b5d26)" style="fill: #008000"/>
   </g>
   <g id="patch_144">
    <path d="M 524.548159 448.56 
L 526.869773 448.56 
L 526.869773 114.489538 
L 524.548159 114.489538 
z
" clip-path="url(#p986f3b5d26)" style="fill: #008000"/>
   </g>
   <g id="patch_145">
    <path d="M 527.450177 448.56 
L 529.771791 448.56 
L 529.771791 106.257822 
L 527.450177 106.257822 
z
" clip-path="url(#p986f3b5d26)" style="fill: #008000"/>
   </g>
   <g id="patch_146">
    <path d="M 530.352195 448.56 
L 532.673809 448.56 
L 532.673809 107.871884 
L 530.352195 107.871884 
z
" clip-path="url(#p986f3b5d26)" style="fill: #008000"/>
   </g>
   <g id="patch_147">
    <path d="M 533.254213 448.56 
L 535.575827 448.56 
L 535.575827 101.25423 
L 533.254213 101.25423 
z
" clip-path="url(#p986f3b5d26)" style="fill: #008000"/>
   </g>
   <g id="patch_148">
    <path d="M 536.15623 448.56 
L 538.477845 448.56 
L 538.477845 85.577654 
L 536.15623 85.577654 
z
" clip-path="url(#p986f3b5d26)" style="fill: #008000"/>
   </g>
   <g id="patch_149">
    <path d="M 539.058248 448.56 
L 541.379863 448.56 
L 541.379863 89.451402 
L 539.058248 89.451402 
z
" clip-path="url(#p986f3b5d26)" style="fill: #008000"/>
   </g>
   <g id="patch_150">
    <path d="M 541.960266 448.56 
L 544.281881 448.56 
L 544.281881 93.587436 
L 541.960266 93.587436 
z
" clip-path="url(#p986f3b5d26)" style="fill: #008000"/>
   </g>
   <g id="patch_151">
    <path d="M 544.862284 448.56 
L 547.183898 448.56 
L 547.183898 82.995155 
L 544.862284 82.995155 
z
" clip-path="url(#p986f3b5d26)" style="fill: #008000"/>
   </g>
   <g id="patch_152">
    <path d="M 547.764302 448.56 
L 550.085916 448.56 
L 550.085916 85.295193 
L 547.764302 85.295193 
z
" clip-path="url(#p986f3b5d26)" style="fill: #008000"/>
   </g>
   <g id="patch_153">
    <path d="M 550.66632 448.56 
L 552.987934 448.56 
L 552.987934 82.107421 
L 550.66632 82.107421 
z
" clip-path="url(#p986f3b5d26)" style="fill: #008000"/>
   </g>
   <g id="patch_154">
    <path d="M 553.568338 448.56 
L 555.889952 448.56 
L 555.889952 103.675323 
L 553.568338 103.675323 
z
" clip-path="url(#p986f3b5d26)" style="fill: #008000"/>
   </g>
   <g id="patch_155">
    <path d="M 556.470356 448.56 
L 558.79197 448.56 
L 558.79197 106.096416 
L 556.470356 106.096416 
z
" clip-path="url(#p986f3b5d26)" style="fill: #008000"/>
   </g>
   <g id="patch_156">
    <path d="M 559.372374 448.56 
L 561.693988 448.56 
L 561.693988 120.501918 
L 559.372374 120.501918 
z
" clip-path="url(#p986f3b5d26)" style="fill: #008000"/>
   </g>
   <g id="patch_157">
    <path d="M 562.274392 448.56 
L 564.596006 448.56 
L 564.596006 125.989729 
L 562.274392 125.989729 
z
" clip-path="url(#p986f3b5d26)" style="fill: #008000"/>
   </g>
   <g id="patch_158">
    <path d="M 565.176409 448.56 
L 567.498024 448.56 
L 567.498024 150.422591 
L 565.176409 150.422591 
z
" clip-path="url(#p986f3b5d26)" style="fill: #008000"/>
   </g>
   <g id="patch_159">
    <path d="M 568.078427 448.56 
L 570.400042 448.56 
L 570.400042 170.255376 
L 568.078427 170.255376 
z
" clip-path="url(#p986f3b5d26)" style="fill: #008000"/>
   </g>
   <g id="patch_160">
    <path d="M 570.980445 448.56 
L 573.302059 448.56 
L 573.302059 186.093359 
L 570.980445 186.093359 
z
" clip-path="url(#p986f3b5d26)" style="fill: #008000"/>
   </g>
   <g id="patch_161">
    <path d="M 573.882463 448.56 
L 576.204077 448.56 
L 576.204077 221.683424 
L 573.882463 221.683424 
z
" clip-path="url(#p986f3b5d26)" style="fill: #008000"/>
   </g>
   <g id="patch_162">
    <path d="M 576.784481 448.56 
L 579.106095 448.56 
L 579.106095 253.662025 
L 576.784481 253.662025 
z
" clip-path="url(#p986f3b5d26)" style="fill: #008000"/>
   </g>
   <g id="patch_163">
    <path d="M 579.686499 448.56 
L 582.008113 448.56 
L 582.008113 119.715063 
L 579.686499 119.715063 
z
" clip-path="url(#p986f3b5d26)" style="fill: #008000"/>
   </g>
   <g id="patch_164">
    <path d="M 582.588517 448.56 
L 584.910131 448.56 
L 584.910131 330.329966 
L 582.588517 330.329966 
z
" clip-path="url(#p986f3b5d26)" style="fill: #008000"/>
   </g>
   <g id="patch_165">
    <path d="M 585.490535 448.56 
L 587.812149 448.56 
L 587.812149 363.15595 
L 585.490535 363.15595 
z
" clip-path="url(#p986f3b5d26)" style="fill: #008000"/>
   </g>
   <g id="patch_166">
    <path d="M 588.392553 448.56 
L 590.714167 448.56 
L 590.714167 397.737226 
L 588.392553 397.737226 
z
" clip-path="url(#p986f3b5d26)" style="fill: #008000"/>
   </g>
   <g id="patch_167">
    <path d="M 591.29457 448.56 
L 593.616185 448.56 
L 593.616185 424.248193 
L 591.29457 424.248193 
z
" clip-path="url(#p986f3b5d26)" style="fill: #008000"/>
   </g>
   <g id="patch_168">
    <path d="M 594.196588 448.56 
L 596.518203 448.56 
L 596.518203 438.593168 
L 594.196588 438.593168 
z
" clip-path="url(#p986f3b5d26)" style="fill: #008000"/>
   </g>
   <g id="patch_169">
    <path d="M 597.098606 448.56 
L 599.420221 448.56 
L 599.420221 444.807306 
L 597.098606 444.807306 
z
" clip-path="url(#p986f3b5d26)" style="fill: #008000"/>
   </g>
   <g id="patch_170">
    <path d="M 600.000624 448.56 
L 602.322238 448.56 
L 602.322238 446.441544 
L 600.000624 446.441544 
z
" clip-path="url(#p986f3b5d26)" style="fill: #008000"/>
   </g>
   <g id="patch_171">
    <path d="M 602.902642 448.56 
L 605.224256 448.56 
L 605.224256 447.430157 
L 602.902642 447.430157 
z
" clip-path="url(#p986f3b5d26)" style="fill: #008000"/>
   </g>
   <g id="patch_172">
    <path d="M 605.80466 448.56 
L 608.126274 448.56 
L 608.126274 447.551211 
L 605.80466 447.551211 
z
" clip-path="url(#p986f3b5d26)" style="fill: #008000"/>
   </g>
   <g id="patch_173">
    <path d="M 608.706678 448.56 
L 611.028292 448.56 
L 611.028292 447.752969 
L 608.706678 447.752969 
z
" clip-path="url(#p986f3b5d26)" style="fill: #008000"/>
   </g>
   <g id="patch_174">
    <path d="M 611.608696 448.56 
L 613.93031 448.56 
L 613.93031 448.217012 
L 611.608696 448.217012 
z
" clip-path="url(#p986f3b5d26)" style="fill: #008000"/>
   </g>
   <g id="patch_175">
    <path d="M 614.510714 448.56 
L 616.832328 448.56 
L 616.832328 448.277539 
L 614.510714 448.277539 
z
" clip-path="url(#p986f3b5d26)" style="fill: #008000"/>
   </g>
   <g id="patch_176">
    <path d="M 617.412731 448.56 
L 619.734346 448.56 
L 619.734346 448.479297 
L 617.412731 448.479297 
z
" clip-path="url(#p986f3b5d26)" style="fill: #008000"/>
   </g>
   <g id="patch_177">
    <path d="M 620.314749 448.56 
L 622.636364 448.56 
L 622.636364 448.358242 
L 620.314749 448.358242 
z
" clip-path="url(#p986f3b5d26)" style="fill: #008000"/>
   </g>
   <g id="matplotlib.axis_1">
    <g id="xtick_1">
     <g id="line2d_1">
      <defs>
       <path id="m785228b5b4" d="M 0 0 
L 0 3.5 
" style="stroke: #000000; stroke-width: 0.8"/>
      </defs>
      <g>
       <use xlink:href="#m785228b5b4" x="145.544622" y="448.56" style="stroke: #000000; stroke-width: 0.8"/>
      </g>
     </g>
     <g id="text_1">
      <!-- 1850 -->
      <g transform="translate(132.819622 463.158437)scale(0.1 -0.1)">
       <defs>
        <path id="DejaVuSans-31" d="M 794 531 
L 1825 531 
L 1825 4091 
L 703 3866 
L 703 4441 
L 1819 4666 
L 2450 4666 
L 2450 531 
L 3481 531 
L 3481 0 
L 794 0 
L 794 531 
z
" transform="scale(0.015625)"/>
        <path id="DejaVuSans-38" d="M 2034 2216 
Q 1584 2216 1326 1975 
Q 1069 1734 1069 1313 
Q 1069 891 1326 650 
Q 1584 409 2034 409 
Q 2484 409 2743 651 
Q 3003 894 3003 1313 
Q 3003 1734 2745 1975 
Q 2488 2216 2034 2216 
z
M 1403 2484 
Q 997 2584 770 2862 
Q 544 3141 544 3541 
Q 544 4100 942 4425 
Q 1341 4750 2034 4750 
Q 2731 4750 3128 4425 
Q 3525 4100 3525 3541 
Q 3525 3141 3298 2862 
Q 3072 2584 2669 2484 
Q 3125 2378 3379 2068 
Q 3634 1759 3634 1313 
Q 3634 634 3220 271 
Q 2806 -91 2034 -91 
Q 1263 -91 848 271 
Q 434 634 434 1313 
Q 434 1759 690 2068 
Q 947 2378 1403 2484 
z
M 1172 3481 
Q 1172 3119 1398 2916 
Q 1625 2713 2034 2713 
Q 2441 2713 2670 2916 
Q 2900 3119 2900 3481 
Q 2900 3844 2670 4047 
Q 2441 4250 2034 4250 
Q 1625 4250 1398 4047 
Q 1172 3844 1172 3481 
z
" transform="scale(0.015625)"/>
        <path id="DejaVuSans-35" d="M 691 4666 
L 3169 4666 
L 3169 4134 
L 1269 4134 
L 1269 2991 
Q 1406 3038 1543 3061 
Q 1681 3084 1819 3084 
Q 2600 3084 3056 2656 
Q 3513 2228 3513 1497 
Q 3513 744 3044 326 
Q 2575 -91 1722 -91 
Q 1428 -91 1123 -41 
Q 819 9 494 109 
L 494 744 
Q 775 591 1075 516 
Q 1375 441 1709 441 
Q 2250 441 2565 725 
Q 2881 1009 2881 1497 
Q 2881 1984 2565 2268 
Q 2250 2553 1709 2553 
Q 1456 2553 1204 2497 
Q 953 2441 691 2322 
L 691 4666 
z
" transform="scale(0.015625)"/>
        <path id="DejaVuSans-30" d="M 2034 4250 
Q 1547 4250 1301 3770 
Q 1056 3291 1056 2328 
Q 1056 1369 1301 889 
Q 1547 409 2034 409 
Q 2525 409 2770 889 
Q 3016 1369 3016 2328 
Q 3016 3291 2770 3770 
Q 2525 4250 2034 4250 
z
M 2034 4750 
Q 2819 4750 3233 4129 
Q 3647 3509 3647 2328 
Q 3647 1150 3233 529 
Q 2819 -91 2034 -91 
Q 1250 -91 836 529 
Q 422 1150 422 2328 
Q 422 3509 836 4129 
Q 1250 4750 2034 4750 
z
" transform="scale(0.015625)"/>
       </defs>
       <use xlink:href="#DejaVuSans-31"/>
       <use xlink:href="#DejaVuSans-38" x="63.623047"/>
       <use xlink:href="#DejaVuSans-35" x="127.246094"/>
       <use xlink:href="#DejaVuSans-30" x="190.869141"/>
      </g>
     </g>
    </g>
    <g id="xtick_2">
     <g id="line2d_2">
      <g>
       <use xlink:href="#m785228b5b4" x="218.09507" y="448.56" style="stroke: #000000; stroke-width: 0.8"/>
      </g>
     </g>
     <g id="text_2">
      <!-- 1875 -->
      <g transform="translate(205.37007 463.158437)scale(0.1 -0.1)">
       <defs>
        <path id="DejaVuSans-37" d="M 525 4666 
L 3525 4666 
L 3525 4397 
L 1831 0 
L 1172 0 
L 2766 4134 
L 525 4134 
L 525 4666 
z
" transform="scale(0.015625)"/>
       </defs>
       <use xlink:href="#DejaVuSans-31"/>
       <use xlink:href="#DejaVuSans-38" x="63.623047"/>
       <use xlink:href="#DejaVuSans-37" x="127.246094"/>
       <use xlink:href="#DejaVuSans-35" x="190.869141"/>
      </g>
     </g>
    </g>
    <g id="xtick_3">
     <g id="line2d_3">
      <g>
       <use xlink:href="#m785228b5b4" x="290.645517" y="448.56" style="stroke: #000000; stroke-width: 0.8"/>
      </g>
     </g>
     <g id="text_3">
      <!-- 1900 -->
      <g transform="translate(277.920517 463.158437)scale(0.1 -0.1)">
       <defs>
        <path id="DejaVuSans-39" d="M 703 97 
L 703 672 
Q 941 559 1184 500 
Q 1428 441 1663 441 
Q 2288 441 2617 861 
Q 2947 1281 2994 2138 
Q 2813 1869 2534 1725 
Q 2256 1581 1919 1581 
Q 1219 1581 811 2004 
Q 403 2428 403 3163 
Q 403 3881 828 4315 
Q 1253 4750 1959 4750 
Q 2769 4750 3195 4129 
Q 3622 3509 3622 2328 
Q 3622 1225 3098 567 
Q 2575 -91 1691 -91 
Q 1453 -91 1209 -44 
Q 966 3 703 97 
z
M 1959 2075 
Q 2384 2075 2632 2365 
Q 2881 2656 2881 3163 
Q 2881 3666 2632 3958 
Q 2384 4250 1959 4250 
Q 1534 4250 1286 3958 
Q 1038 3666 1038 3163 
Q 1038 2656 1286 2365 
Q 1534 2075 1959 2075 
z
" transform="scale(0.015625)"/>
       </defs>
       <use xlink:href="#DejaVuSans-31"/>
       <use xlink:href="#DejaVuSans-39" x="63.623047"/>
       <use xlink:href="#DejaVuSans-30" x="127.246094"/>
       <use xlink:href="#DejaVuSans-30" x="190.869141"/>
      </g>
     </g>
    </g>
    <g id="xtick_4">
     <g id="line2d_4">
      <g>
       <use xlink:href="#m785228b5b4" x="363.195964" y="448.56" style="stroke: #000000; stroke-width: 0.8"/>
      </g>
     </g>
     <g id="text_4">
      <!-- 1925 -->
      <g transform="translate(350.470964 463.158437)scale(0.1 -0.1)">
       <defs>
        <path id="DejaVuSans-32" d="M 1228 531 
L 3431 531 
L 3431 0 
L 469 0 
L 469 531 
Q 828 903 1448 1529 
Q 2069 2156 2228 2338 
Q 2531 2678 2651 2914 
Q 2772 3150 2772 3378 
Q 2772 3750 2511 3984 
Q 2250 4219 1831 4219 
Q 1534 4219 1204 4116 
Q 875 4013 500 3803 
L 500 4441 
Q 881 4594 1212 4672 
Q 1544 4750 1819 4750 
Q 2544 4750 2975 4387 
Q 3406 4025 3406 3419 
Q 3406 3131 3298 2873 
Q 3191 2616 2906 2266 
Q 2828 2175 2409 1742 
Q 1991 1309 1228 531 
z
" transform="scale(0.015625)"/>
       </defs>
       <use xlink:href="#DejaVuSans-31"/>
       <use xlink:href="#DejaVuSans-39" x="63.623047"/>
       <use xlink:href="#DejaVuSans-32" x="127.246094"/>
       <use xlink:href="#DejaVuSans-35" x="190.869141"/>
      </g>
     </g>
    </g>
    <g id="xtick_5">
     <g id="line2d_5">
      <g>
       <use xlink:href="#m785228b5b4" x="435.746411" y="448.56" style="stroke: #000000; stroke-width: 0.8"/>
      </g>
     </g>
     <g id="text_5">
      <!-- 1950 -->
      <g transform="translate(423.021411 463.158437)scale(0.1 -0.1)">
       <use xlink:href="#DejaVuSans-31"/>
       <use xlink:href="#DejaVuSans-39" x="63.623047"/>
       <use xlink:href="#DejaVuSans-35" x="127.246094"/>
       <use xlink:href="#DejaVuSans-30" x="190.869141"/>
      </g>
     </g>
    </g>
    <g id="xtick_6">
     <g id="line2d_6">
      <g>
       <use xlink:href="#m785228b5b4" x="508.296859" y="448.56" style="stroke: #000000; stroke-width: 0.8"/>
      </g>
     </g>
     <g id="text_6">
      <!-- 1975 -->
      <g transform="translate(495.571859 463.158437)scale(0.1 -0.1)">
       <use xlink:href="#DejaVuSans-31"/>
       <use xlink:href="#DejaVuSans-39" x="63.623047"/>
       <use xlink:href="#DejaVuSans-37" x="127.246094"/>
       <use xlink:href="#DejaVuSans-35" x="190.869141"/>
      </g>
     </g>
    </g>
    <g id="xtick_7">
     <g id="line2d_7">
      <g>
       <use xlink:href="#m785228b5b4" x="580.847306" y="448.56" style="stroke: #000000; stroke-width: 0.8"/>
      </g>
     </g>
     <g id="text_7">
      <!-- 2000 -->
      <g transform="translate(568.122306 463.158437)scale(0.1 -0.1)">
       <use xlink:href="#DejaVuSans-32"/>
       <use xlink:href="#DejaVuSans-30" x="63.623047"/>
       <use xlink:href="#DejaVuSans-30" x="127.246094"/>
       <use xlink:href="#DejaVuSans-30" x="190.869141"/>
      </g>
     </g>
    </g>
    <g id="text_8">
     <!-- Birth years -->
     <g transform="translate(341.646875 476.836563)scale(0.1 -0.1)">
      <defs>
       <path id="DejaVuSans-42" d="M 1259 2228 
L 1259 519 
L 2272 519 
Q 2781 519 3026 730 
Q 3272 941 3272 1375 
Q 3272 1813 3026 2020 
Q 2781 2228 2272 2228 
L 1259 2228 
z
M 1259 4147 
L 1259 2741 
L 2194 2741 
Q 2656 2741 2882 2914 
Q 3109 3088 3109 3444 
Q 3109 3797 2882 3972 
Q 2656 4147 2194 4147 
L 1259 4147 
z
M 628 4666 
L 2241 4666 
Q 2963 4666 3353 4366 
Q 3744 4066 3744 3513 
Q 3744 3084 3544 2831 
Q 3344 2578 2956 2516 
Q 3422 2416 3680 2098 
Q 3938 1781 3938 1306 
Q 3938 681 3513 340 
Q 3088 0 2303 0 
L 628 0 
L 628 4666 
z
" transform="scale(0.015625)"/>
       <path id="DejaVuSans-69" d="M 603 3500 
L 1178 3500 
L 1178 0 
L 603 0 
L 603 3500 
z
M 603 4863 
L 1178 4863 
L 1178 4134 
L 603 4134 
L 603 4863 
z
" transform="scale(0.015625)"/>
       <path id="DejaVuSans-72" d="M 2631 2963 
Q 2534 3019 2420 3045 
Q 2306 3072 2169 3072 
Q 1681 3072 1420 2755 
Q 1159 2438 1159 1844 
L 1159 0 
L 581 0 
L 581 3500 
L 1159 3500 
L 1159 2956 
Q 1341 3275 1631 3429 
Q 1922 3584 2338 3584 
Q 2397 3584 2469 3576 
Q 2541 3569 2628 3553 
L 2631 2963 
z
" transform="scale(0.015625)"/>
       <path id="DejaVuSans-74" d="M 1172 4494 
L 1172 3500 
L 2356 3500 
L 2356 3053 
L 1172 3053 
L 1172 1153 
Q 1172 725 1289 603 
Q 1406 481 1766 481 
L 2356 481 
L 2356 0 
L 1766 0 
Q 1100 0 847 248 
Q 594 497 594 1153 
L 594 3053 
L 172 3053 
L 172 3500 
L 594 3500 
L 594 4494 
L 1172 4494 
z
" transform="scale(0.015625)"/>
       <path id="DejaVuSans-68" d="M 3513 2113 
L 3513 0 
L 2938 0 
L 2938 2094 
Q 2938 2591 2744 2837 
Q 2550 3084 2163 3084 
Q 1697 3084 1428 2787 
Q 1159 2491 1159 1978 
L 1159 0 
L 581 0 
L 581 4863 
L 1159 4863 
L 1159 2956 
Q 1366 3272 1645 3428 
Q 1925 3584 2291 3584 
Q 2894 3584 3203 3211 
Q 3513 2838 3513 2113 
z
" transform="scale(0.015625)"/>
       <path id="DejaVuSans-20" transform="scale(0.015625)"/>
       <path id="DejaVuSans-79" d="M 2059 -325 
Q 1816 -950 1584 -1140 
Q 1353 -1331 966 -1331 
L 506 -1331 
L 506 -850 
L 844 -850 
Q 1081 -850 1212 -737 
Q 1344 -625 1503 -206 
L 1606 56 
L 191 3500 
L 800 3500 
L 1894 763 
L 2988 3500 
L 3597 3500 
L 2059 -325 
z
" transform="scale(0.015625)"/>
       <path id="DejaVuSans-65" d="M 3597 1894 
L 3597 1613 
L 953 1613 
Q 991 1019 1311 708 
Q 1631 397 2203 397 
Q 2534 397 2845 478 
Q 3156 559 3463 722 
L 3463 178 
Q 3153 47 2828 -22 
Q 2503 -91 2169 -91 
Q 1331 -91 842 396 
Q 353 884 353 1716 
Q 353 2575 817 3079 
Q 1281 3584 2069 3584 
Q 2775 3584 3186 3129 
Q 3597 2675 3597 1894 
z
M 3022 2063 
Q 3016 2534 2758 2815 
Q 2500 3097 2075 3097 
Q 1594 3097 1305 2825 
Q 1016 2553 972 2059 
L 3022 2063 
z
" transform="scale(0.015625)"/>
       <path id="DejaVuSans-61" d="M 2194 1759 
Q 1497 1759 1228 1600 
Q 959 1441 959 1056 
Q 959 750 1161 570 
Q 1363 391 1709 391 
Q 2188 391 2477 730 
Q 2766 1069 2766 1631 
L 2766 1759 
L 2194 1759 
z
M 3341 1997 
L 3341 0 
L 2766 0 
L 2766 531 
Q 2569 213 2275 61 
Q 1981 -91 1556 -91 
Q 1019 -91 701 211 
Q 384 513 384 1019 
Q 384 1609 779 1909 
Q 1175 2209 1959 2209 
L 2766 2209 
L 2766 2266 
Q 2766 2663 2505 2880 
Q 2244 3097 1772 3097 
Q 1472 3097 1187 3025 
Q 903 2953 641 2809 
L 641 3341 
Q 956 3463 1253 3523 
Q 1550 3584 1831 3584 
Q 2591 3584 2966 3190 
Q 3341 2797 3341 1997 
z
" transform="scale(0.015625)"/>
       <path id="DejaVuSans-73" d="M 2834 3397 
L 2834 2853 
Q 2591 2978 2328 3040 
Q 2066 3103 1784 3103 
Q 1356 3103 1142 2972 
Q 928 2841 928 2578 
Q 928 2378 1081 2264 
Q 1234 2150 1697 2047 
L 1894 2003 
Q 2506 1872 2764 1633 
Q 3022 1394 3022 966 
Q 3022 478 2636 193 
Q 2250 -91 1575 -91 
Q 1294 -91 989 -36 
Q 684 19 347 128 
L 347 722 
Q 666 556 975 473 
Q 1284 391 1588 391 
Q 1994 391 2212 530 
Q 2431 669 2431 922 
Q 2431 1156 2273 1281 
Q 2116 1406 1581 1522 
L 1381 1569 
Q 847 1681 609 1914 
Q 372 2147 372 2553 
Q 372 3047 722 3315 
Q 1072 3584 1716 3584 
Q 2034 3584 2315 3537 
Q 2597 3491 2834 3397 
z
" transform="scale(0.015625)"/>
      </defs>
      <use xlink:href="#DejaVuSans-42"/>
      <use xlink:href="#DejaVuSans-69" x="68.603516"/>
      <use xlink:href="#DejaVuSans-72" x="96.386719"/>
      <use xlink:href="#DejaVuSans-74" x="137.5"/>
      <use xlink:href="#DejaVuSans-68" x="176.708984"/>
      <use xlink:href="#DejaVuSans-20" x="240.087891"/>
      <use xlink:href="#DejaVuSans-79" x="271.875"/>
      <use xlink:href="#DejaVuSans-65" x="331.054688"/>
      <use xlink:href="#DejaVuSans-61" x="392.578125"/>
      <use xlink:href="#DejaVuSans-72" x="453.857422"/>
      <use xlink:href="#DejaVuSans-73" x="494.970703"/>
     </g>
    </g>
   </g>
   <g id="matplotlib.axis_2">
    <g id="ytick_1">
     <g id="line2d_8">
      <defs>
       <path id="m5d99324d5b" d="M 0 0 
L -3.5 0 
" style="stroke: #000000; stroke-width: 0.8"/>
      </defs>
      <g>
       <use xlink:href="#m5d99324d5b" x="90" y="448.56" style="stroke: #000000; stroke-width: 0.8"/>
      </g>
     </g>
     <g id="text_9">
      <!-- 0 -->
      <g transform="translate(76.6375 452.359219)scale(0.1 -0.1)">
       <use xlink:href="#DejaVuSans-30"/>
      </g>
     </g>
    </g>
    <g id="ytick_2">
     <g id="line2d_9">
      <g>
       <use xlink:href="#m5d99324d5b" x="90" y="398.120566" style="stroke: #000000; stroke-width: 0.8"/>
      </g>
     </g>
     <g id="text_10">
      <!-- 2500 -->
      <g transform="translate(57.55 401.919784)scale(0.1 -0.1)">
       <use xlink:href="#DejaVuSans-32"/>
       <use xlink:href="#DejaVuSans-35" x="63.623047"/>
       <use xlink:href="#DejaVuSans-30" x="127.246094"/>
       <use xlink:href="#DejaVuSans-30" x="190.869141"/>
      </g>
     </g>
    </g>
    <g id="ytick_3">
     <g id="line2d_10">
      <g>
       <use xlink:href="#m5d99324d5b" x="90" y="347.681131" style="stroke: #000000; stroke-width: 0.8"/>
      </g>
     </g>
     <g id="text_11">
      <!-- 5000 -->
      <g transform="translate(57.55 351.48035)scale(0.1 -0.1)">
       <use xlink:href="#DejaVuSans-35"/>
       <use xlink:href="#DejaVuSans-30" x="63.623047"/>
       <use xlink:href="#DejaVuSans-30" x="127.246094"/>
       <use xlink:href="#DejaVuSans-30" x="190.869141"/>
      </g>
     </g>
    </g>
    <g id="ytick_4">
     <g id="line2d_11">
      <g>
       <use xlink:href="#m5d99324d5b" x="90" y="297.241697" style="stroke: #000000; stroke-width: 0.8"/>
      </g>
     </g>
     <g id="text_12">
      <!-- 7500 -->
      <g transform="translate(57.55 301.040915)scale(0.1 -0.1)">
       <use xlink:href="#DejaVuSans-37"/>
       <use xlink:href="#DejaVuSans-35" x="63.623047"/>
       <use xlink:href="#DejaVuSans-30" x="127.246094"/>
       <use xlink:href="#DejaVuSans-30" x="190.869141"/>
      </g>
     </g>
    </g>
    <g id="ytick_5">
     <g id="line2d_12">
      <g>
       <use xlink:href="#m5d99324d5b" x="90" y="246.802262" style="stroke: #000000; stroke-width: 0.8"/>
      </g>
     </g>
     <g id="text_13">
      <!-- 10000 -->
      <g transform="translate(51.1875 250.601481)scale(0.1 -0.1)">
       <use xlink:href="#DejaVuSans-31"/>
       <use xlink:href="#DejaVuSans-30" x="63.623047"/>
       <use xlink:href="#DejaVuSans-30" x="127.246094"/>
       <use xlink:href="#DejaVuSans-30" x="190.869141"/>
       <use xlink:href="#DejaVuSans-30" x="254.492188"/>
      </g>
     </g>
    </g>
    <g id="ytick_6">
     <g id="line2d_13">
      <g>
       <use xlink:href="#m5d99324d5b" x="90" y="196.362828" style="stroke: #000000; stroke-width: 0.8"/>
      </g>
     </g>
     <g id="text_14">
      <!-- 12500 -->
      <g transform="translate(51.1875 200.162046)scale(0.1 -0.1)">
       <use xlink:href="#DejaVuSans-31"/>
       <use xlink:href="#DejaVuSans-32" x="63.623047"/>
       <use xlink:href="#DejaVuSans-35" x="127.246094"/>
       <use xlink:href="#DejaVuSans-30" x="190.869141"/>
       <use xlink:href="#DejaVuSans-30" x="254.492188"/>
      </g>
     </g>
    </g>
    <g id="ytick_7">
     <g id="line2d_14">
      <g>
       <use xlink:href="#m5d99324d5b" x="90" y="145.923393" style="stroke: #000000; stroke-width: 0.8"/>
      </g>
     </g>
     <g id="text_15">
      <!-- 15000 -->
      <g transform="translate(51.1875 149.722612)scale(0.1 -0.1)">
       <use xlink:href="#DejaVuSans-31"/>
       <use xlink:href="#DejaVuSans-35" x="63.623047"/>
       <use xlink:href="#DejaVuSans-30" x="127.246094"/>
       <use xlink:href="#DejaVuSans-30" x="190.869141"/>
       <use xlink:href="#DejaVuSans-30" x="254.492188"/>
      </g>
     </g>
    </g>
    <g id="ytick_8">
     <g id="line2d_15">
      <g>
       <use xlink:href="#m5d99324d5b" x="90" y="95.483959" style="stroke: #000000; stroke-width: 0.8"/>
      </g>
     </g>
     <g id="text_16">
      <!-- 17500 -->
      <g transform="translate(51.1875 99.283177)scale(0.1 -0.1)">
       <use xlink:href="#DejaVuSans-31"/>
       <use xlink:href="#DejaVuSans-37" x="63.623047"/>
       <use xlink:href="#DejaVuSans-35" x="127.246094"/>
       <use xlink:href="#DejaVuSans-30" x="190.869141"/>
       <use xlink:href="#DejaVuSans-30" x="254.492188"/>
      </g>
     </g>
    </g>
    <g id="text_17">
     <!-- # of occurences in dataset -->
     <g transform="translate(45.107812 321.692656)rotate(-90)scale(0.1 -0.1)">
      <defs>
       <path id="DejaVuSans-23" d="M 3272 2816 
L 2363 2816 
L 2100 1772 
L 3016 1772 
L 3272 2816 
z
M 2803 4594 
L 2478 3297 
L 3391 3297 
L 3719 4594 
L 4219 4594 
L 3897 3297 
L 4872 3297 
L 4872 2816 
L 3775 2816 
L 3519 1772 
L 4513 1772 
L 4513 1294 
L 3397 1294 
L 3072 0 
L 2572 0 
L 2894 1294 
L 1978 1294 
L 1656 0 
L 1153 0 
L 1478 1294 
L 494 1294 
L 494 1772 
L 1594 1772 
L 1856 2816 
L 850 2816 
L 850 3297 
L 1978 3297 
L 2297 4594 
L 2803 4594 
z
" transform="scale(0.015625)"/>
       <path id="DejaVuSans-6f" d="M 1959 3097 
Q 1497 3097 1228 2736 
Q 959 2375 959 1747 
Q 959 1119 1226 758 
Q 1494 397 1959 397 
Q 2419 397 2687 759 
Q 2956 1122 2956 1747 
Q 2956 2369 2687 2733 
Q 2419 3097 1959 3097 
z
M 1959 3584 
Q 2709 3584 3137 3096 
Q 3566 2609 3566 1747 
Q 3566 888 3137 398 
Q 2709 -91 1959 -91 
Q 1206 -91 779 398 
Q 353 888 353 1747 
Q 353 2609 779 3096 
Q 1206 3584 1959 3584 
z
" transform="scale(0.015625)"/>
       <path id="DejaVuSans-66" d="M 2375 4863 
L 2375 4384 
L 1825 4384 
Q 1516 4384 1395 4259 
Q 1275 4134 1275 3809 
L 1275 3500 
L 2222 3500 
L 2222 3053 
L 1275 3053 
L 1275 0 
L 697 0 
L 697 3053 
L 147 3053 
L 147 3500 
L 697 3500 
L 697 3744 
Q 697 4328 969 4595 
Q 1241 4863 1831 4863 
L 2375 4863 
z
" transform="scale(0.015625)"/>
       <path id="DejaVuSans-63" d="M 3122 3366 
L 3122 2828 
Q 2878 2963 2633 3030 
Q 2388 3097 2138 3097 
Q 1578 3097 1268 2742 
Q 959 2388 959 1747 
Q 959 1106 1268 751 
Q 1578 397 2138 397 
Q 2388 397 2633 464 
Q 2878 531 3122 666 
L 3122 134 
Q 2881 22 2623 -34 
Q 2366 -91 2075 -91 
Q 1284 -91 818 406 
Q 353 903 353 1747 
Q 353 2603 823 3093 
Q 1294 3584 2113 3584 
Q 2378 3584 2631 3529 
Q 2884 3475 3122 3366 
z
" transform="scale(0.015625)"/>
       <path id="DejaVuSans-75" d="M 544 1381 
L 544 3500 
L 1119 3500 
L 1119 1403 
Q 1119 906 1312 657 
Q 1506 409 1894 409 
Q 2359 409 2629 706 
Q 2900 1003 2900 1516 
L 2900 3500 
L 3475 3500 
L 3475 0 
L 2900 0 
L 2900 538 
Q 2691 219 2414 64 
Q 2138 -91 1772 -91 
Q 1169 -91 856 284 
Q 544 659 544 1381 
z
M 1991 3584 
L 1991 3584 
z
" transform="scale(0.015625)"/>
       <path id="DejaVuSans-6e" d="M 3513 2113 
L 3513 0 
L 2938 0 
L 2938 2094 
Q 2938 2591 2744 2837 
Q 2550 3084 2163 3084 
Q 1697 3084 1428 2787 
Q 1159 2491 1159 1978 
L 1159 0 
L 581 0 
L 581 3500 
L 1159 3500 
L 1159 2956 
Q 1366 3272 1645 3428 
Q 1925 3584 2291 3584 
Q 2894 3584 3203 3211 
Q 3513 2838 3513 2113 
z
" transform="scale(0.015625)"/>
       <path id="DejaVuSans-64" d="M 2906 2969 
L 2906 4863 
L 3481 4863 
L 3481 0 
L 2906 0 
L 2906 525 
Q 2725 213 2448 61 
Q 2172 -91 1784 -91 
Q 1150 -91 751 415 
Q 353 922 353 1747 
Q 353 2572 751 3078 
Q 1150 3584 1784 3584 
Q 2172 3584 2448 3432 
Q 2725 3281 2906 2969 
z
M 947 1747 
Q 947 1113 1208 752 
Q 1469 391 1925 391 
Q 2381 391 2643 752 
Q 2906 1113 2906 1747 
Q 2906 2381 2643 2742 
Q 2381 3103 1925 3103 
Q 1469 3103 1208 2742 
Q 947 2381 947 1747 
z
" transform="scale(0.015625)"/>
      </defs>
      <use xlink:href="#DejaVuSans-23"/>
      <use xlink:href="#DejaVuSans-20" x="83.789062"/>
      <use xlink:href="#DejaVuSans-6f" x="115.576172"/>
      <use xlink:href="#DejaVuSans-66" x="176.757812"/>
      <use xlink:href="#DejaVuSans-20" x="211.962891"/>
      <use xlink:href="#DejaVuSans-6f" x="243.75"/>
      <use xlink:href="#DejaVuSans-63" x="304.931641"/>
      <use xlink:href="#DejaVuSans-63" x="359.912109"/>
      <use xlink:href="#DejaVuSans-75" x="414.892578"/>
      <use xlink:href="#DejaVuSans-72" x="478.271484"/>
      <use xlink:href="#DejaVuSans-65" x="517.134766"/>
      <use xlink:href="#DejaVuSans-6e" x="578.658203"/>
      <use xlink:href="#DejaVuSans-63" x="642.037109"/>
      <use xlink:href="#DejaVuSans-65" x="697.017578"/>
      <use xlink:href="#DejaVuSans-73" x="758.541016"/>
      <use xlink:href="#DejaVuSans-20" x="810.640625"/>
      <use xlink:href="#DejaVuSans-69" x="842.427734"/>
      <use xlink:href="#DejaVuSans-6e" x="870.210938"/>
      <use xlink:href="#DejaVuSans-20" x="933.589844"/>
      <use xlink:href="#DejaVuSans-64" x="965.376953"/>
      <use xlink:href="#DejaVuSans-61" x="1028.853516"/>
      <use xlink:href="#DejaVuSans-74" x="1090.132812"/>
      <use xlink:href="#DejaVuSans-61" x="1129.341797"/>
      <use xlink:href="#DejaVuSans-73" x="1190.621094"/>
      <use xlink:href="#DejaVuSans-65" x="1242.720703"/>
      <use xlink:href="#DejaVuSans-74" x="1304.244141"/>
     </g>
    </g>
   </g>
   <g id="patch_178">
    <path d="M 90 448.56 
L 90 60.48 
" style="fill: none; stroke: #000000; stroke-width: 0.8; stroke-linejoin: miter; stroke-linecap: square"/>
   </g>
   <g id="patch_179">
    <path d="M 648 448.56 
L 648 60.48 
" style="fill: none; stroke: #000000; stroke-width: 0.8; stroke-linejoin: miter; stroke-linecap: square"/>
   </g>
   <g id="patch_180">
    <path d="M 90 448.56 
L 648 448.56 
" style="fill: none; stroke: #000000; stroke-width: 0.8; stroke-linejoin: miter; stroke-linecap: square"/>
   </g>
   <g id="patch_181">
    <path d="M 90 60.48 
L 648 60.48 
" style="fill: none; stroke: #000000; stroke-width: 0.8; stroke-linejoin: miter; stroke-linecap: square"/>
   </g>
   <g id="text_18">
    <!-- Distribution of birth years in dataset -->
    <g transform="translate(259.91625 54.48)scale(0.12 -0.12)">
     <defs>
      <path id="DejaVuSans-44" d="M 1259 4147 
L 1259 519 
L 2022 519 
Q 2988 519 3436 956 
Q 3884 1394 3884 2338 
Q 3884 3275 3436 3711 
Q 2988 4147 2022 4147 
L 1259 4147 
z
M 628 4666 
L 1925 4666 
Q 3281 4666 3915 4102 
Q 4550 3538 4550 2338 
Q 4550 1131 3912 565 
Q 3275 0 1925 0 
L 628 0 
L 628 4666 
z
" transform="scale(0.015625)"/>
      <path id="DejaVuSans-62" d="M 3116 1747 
Q 3116 2381 2855 2742 
Q 2594 3103 2138 3103 
Q 1681 3103 1420 2742 
Q 1159 2381 1159 1747 
Q 1159 1113 1420 752 
Q 1681 391 2138 391 
Q 2594 391 2855 752 
Q 3116 1113 3116 1747 
z
M 1159 2969 
Q 1341 3281 1617 3432 
Q 1894 3584 2278 3584 
Q 2916 3584 3314 3078 
Q 3713 2572 3713 1747 
Q 3713 922 3314 415 
Q 2916 -91 2278 -91 
Q 1894 -91 1617 61 
Q 1341 213 1159 525 
L 1159 0 
L 581 0 
L 581 4863 
L 1159 4863 
L 1159 2969 
z
" transform="scale(0.015625)"/>
     </defs>
     <use xlink:href="#DejaVuSans-44"/>
     <use xlink:href="#DejaVuSans-69" x="77.001953"/>
     <use xlink:href="#DejaVuSans-73" x="104.785156"/>
     <use xlink:href="#DejaVuSans-74" x="156.884766"/>
     <use xlink:href="#DejaVuSans-72" x="196.09375"/>
     <use xlink:href="#DejaVuSans-69" x="237.207031"/>
     <use xlink:href="#DejaVuSans-62" x="264.990234"/>
     <use xlink:href="#DejaVuSans-75" x="328.466797"/>
     <use xlink:href="#DejaVuSans-74" x="391.845703"/>
     <use xlink:href="#DejaVuSans-69" x="431.054688"/>
     <use xlink:href="#DejaVuSans-6f" x="458.837891"/>
     <use xlink:href="#DejaVuSans-6e" x="520.019531"/>
     <use xlink:href="#DejaVuSans-20" x="583.398438"/>
     <use xlink:href="#DejaVuSans-6f" x="615.185547"/>
     <use xlink:href="#DejaVuSans-66" x="676.367188"/>
     <use xlink:href="#DejaVuSans-20" x="711.572266"/>
     <use xlink:href="#DejaVuSans-62" x="743.359375"/>
     <use xlink:href="#DejaVuSans-69" x="806.835938"/>
     <use xlink:href="#DejaVuSans-72" x="834.619141"/>
     <use xlink:href="#DejaVuSans-74" x="875.732422"/>
     <use xlink:href="#DejaVuSans-68" x="914.941406"/>
     <use xlink:href="#DejaVuSans-20" x="978.320312"/>
     <use xlink:href="#DejaVuSans-79" x="1010.107422"/>
     <use xlink:href="#DejaVuSans-65" x="1069.287109"/>
     <use xlink:href="#DejaVuSans-61" x="1130.810547"/>
     <use xlink:href="#DejaVuSans-72" x="1192.089844"/>
     <use xlink:href="#DejaVuSans-73" x="1233.203125"/>
     <use xlink:href="#DejaVuSans-20" x="1285.302734"/>
     <use xlink:href="#DejaVuSans-69" x="1317.089844"/>
     <use xlink:href="#DejaVuSans-6e" x="1344.873047"/>
     <use xlink:href="#DejaVuSans-20" x="1408.251953"/>
     <use xlink:href="#DejaVuSans-64" x="1440.039062"/>
     <use xlink:href="#DejaVuSans-61" x="1503.515625"/>
     <use xlink:href="#DejaVuSans-74" x="1564.794922"/>
     <use xlink:href="#DejaVuSans-61" x="1604.003906"/>
     <use xlink:href="#DejaVuSans-73" x="1665.283203"/>
     <use xlink:href="#DejaVuSans-65" x="1717.382812"/>
     <use xlink:href="#DejaVuSans-74" x="1778.90625"/>
    </g>
   </g>
  </g>
 </g>
 <defs>
  <clipPath id="p986f3b5d26">
   <rect x="90" y="60.48" width="558" height="388.08"/>
  </clipPath>
 </defs>
</svg>
